Moderustic-Bold.ufo
<glyph name="exclam" format="2">
  <advance width="255"/>
  <unicode hex="0021"/>
  <outline>
    <contour>
      <point x="58" y="249" type="line"/>
      <point x="197" y="249" type="line"/>
      <point x="213" y="750" type="line"/>
      <point x="42" y="750" type="line"/>
    </contour>
    <contour>
      <point x="127" y="-20" type="curve" smooth="yes"/>
      <point x="173.952" y="-20"/>
      <point x="209.856" y="17.7454"/>
      <point x="209.856" y="63.7764" type="curve" smooth="yes"/>
      <point x="209.856" y="109.807"/>
      <point x="173.952" y="145.712"/>
      <point x="127" y="145.712" type="curve" smooth="yes"/>
      <point x="79.1278" y="145.712"/>
      <point x="44.1442" y="109.807"/>
      <point x="44.1442" y="63.7764" type="curve" smooth="yes"/>
      <point x="44.1442" y="17.7454"/>
      <point x="79.1278" y="-20"/>
    </contour>
  </outline>
</glyph>
<glyph name="quotedbl" format="2">
  <advance width="409"/>
  <unicode hex="0022"/>
  <outline>
    <contour>
      <point x="45" y="546" type="line"/>
      <point x="163" y="546" type="line"/>
      <point x="178" y="803" type="line"/>
      <point x="30" y="803" type="line"/>
    </contour>
    <contour>
      <point x="246" y="546" type="line"/>
      <point x="364" y="546" type="line"/>
      <point x="379" y="803" type="line"/>
      <point x="231" y="803" type="line"/>
    </contour>
  </outline>
</glyph>
<glyph name="asterisk" format="2">
  <advance width="553"/>
  <unicode hex="002A"/>
  <outline>
    <contour>
      <point x="101" y="351" type="line"/>
      <point x="266" y="468" type="line"/>
      <point x="253" y="272" type="line"/>
      <point x="300" y="272" type="line"/>
      <point x="286" y="468" type="line"/>
      <point x="450" y="353" type="line"/>
      <point x="472" y="394" type="line"/>
      <point x="293" y="486" type="line"/>
      <point x="472" y="579" type="line"/>
      <point x="449" y="620" type="line"/>
      <point x="286" y="505" type="line"/>
      <point x="300" y="700" type="line"/>
      <point x="253" y="700" type="line"/>
      <point x="266" y="505" type="line"/>
      <point x="101" y="621" type="line"/>
      <point x="78" y="580" type="line"/>
      <point x="259" y="486" type="line"/>
      <point x="78" y="393" type="line"/>
    </contour>
  </outline>
</glyph>
<glyph name="plus" format="2">
  <advance width="566"/>
  <unicode hex="002B"/>
  <outline>
    <contour>
      <point x="50" y="262" type="line"/>
      <point x="260" y="262" type="line"/>
      <point x="260" y="55" type="line"/>
      <point x="296" y="55" type="line"/>
      <point x="296" y="262" type="line"/>
      <point x="516" y="262" type="line"/>
      <point x="516" y="298" type="line"/>
      <point x="296" y="298" type="line"/>
      <point x="296" y="505" type="line"/>
      <point x="260" y="505" type="line"/>
      <point x="260" y="298" type="line"/>
      <point x="50" y="298" type="line"/>
    </contour>
  </outline>
</glyph>
<glyph name="comma" format="2">
  <advance width="262"/>
  <unicode hex="002C"/>
  <outline>
    <contour>
      <point x="55" y="-178" type="line"/>
      <point x="166" y="-111"/>
      <point x="221" y="-35"/>
      <point x="221" y="50" type="curve" smooth="yes"/>
      <point x="221" y="121"/>
      <point x="182" y="160"/>
      <point x="131" y="160" type="curve" smooth="yes"/>
      <point x="79" y="160"/>
      <point x="41" y="121"/>
      <point x="41" y="72" type="curve" smooth="yes"/>
      <point x="41" y="21"/>
      <point x="79" y="-20"/>
      <point x="135" y="-20" type="curve"/>
      <point x="128" y="-52"/>
      <point x="86" y="-106"/>
      <point x="45" y="-137" type="curve"/>
    </contour>
  </outline>
</glyph>
<glyph name="zero" format="2">
  <advance width="627"/>
  <unicode hex="0030"/>
  <outline>
    <contour>
      <point x="315.991" y="-19" type="curve" smooth="yes"/>
      <point x="494.339" y="-19"/>
      <point x="587" y="104"/>
      <point x="587" y="350" type="curve" smooth="yes"/>
      <point x="587" y="595"/>
      <point x="495.335" y="720"/>
      <point x="319.976" y="720" type="curve" smooth="yes"/>
      <point x="138.639" y="720"/>
      <point x="40" y="590"/>
      <point x="40" y="348" type="curve" smooth="yes"/>
      <point x="40" y="111"/>
      <point x="134.654" y="-19"/>
    </contour>
    <contour>
      <point x="311.986" y="111" type="curve" smooth="yes"/>
      <point x="243.353" y="111"/>
      <point x="205" y="174"/>
      <point x="205" y="346" type="curve" smooth="yes"/>
      <point x="205" y="518"/>
      <point x="243.353" y="590"/>
      <point x="312.995" y="590" type="curve" smooth="yes"/>
      <point x="382.637" y="590"/>
      <point x="422" y="517"/>
      <point x="422" y="349" type="curve" smooth="yes"/>
      <point x="422" y="172"/>
      <point x="378.6" y="111"/>
    </contour>
  </outline>
</glyph>
<glyph name="one" format="2">
  <advance width="456"/>
  <unicode hex="0031"/>
  <outline>
    <contour>
      <point x="213" y="0" type="line"/>
      <point x="379" y="0" type="line"/>
      <point x="379" y="700" type="line"/>
      <point x="236" y="700" type="line"/>
      <point x="179" y="608"/>
      <point x="105" y="535"/>
      <point x="9" y="515" type="curve"/>
      <point x="9" y="378" type="line"/>
      <point x="127" y="409"/>
      <point x="161" y="439"/>
      <point x="213" y="493" type="curve"/>
    </contour>
  </outline>
</glyph>
<glyph name="four" format="2">
  <advance width="685"/>
  <unicode hex="0034"/>
  <outline>
    <contour>
      <point x="16" y="151" type="line"/>
      <point x="366" y="151" type="line"/>
      <point x="366" y="0" type="line"/>
      <point x="532" y="0" type="line"/>
      <point x="532" y="151" type="line"/>
      <point x="658" y="151" type="line"/>
      <point x="658" y="281" type="line"/>
      <point x="532" y="281" type="line"/>
      <point x="532" y="700" type="line"/>
      <point x="335" y="700" type="line"/>
      <point x="16" y="227" type="line"/>
    </contour>
    <contour>
      <point x="204" y="281" type="line"/>
      <point x="366" y="521" type="line"/>
      <point x="366" y="281" type="line"/>
    </contour>
  </outline>
</glyph>
<glyph name="seven" format="2">
  <advance width="565"/>
  <unicode hex="0037"/>
  <outline>
    <contour>
      <point x="97" y="0" type="line"/>
      <point x="280" y="0" type="line"/>
      <point x="560" y="600" type="line"/>
      <point x="560" y="700" type="line"/>
      <point x="34" y="700" type="line"/>
      <point x="34" y="570" type="line"/>
      <point x="363" y="570" type="line"/>
    </contour>
  </outline>
</glyph>
<glyph name="G" format="2">
  <advance width="786"/>
  <unicode hex="0047"/>
  <anchor x="393" y="719" name="top"/>
  <anchor x="393" y="-20" name="bottom"/>
  <outline>
    <contour>
      <point x="602" y="0" type="line"/>
      <point x="733" y="0" type="line"/>
      <point x="733" y="387" type="line"/>
      <point x="346" y="387" type="line"/>
      <point x="346" y="256" type="line"/>
      <point x="602" y="256" type="line"/>
    </contour>
    <contour>
      <point x="639" y="220" type="curve"/>
      <point x="601" y="312" type="line"/>
      <point x="601" y="178"/>
      <point x="506.24" y="111"/>
      <point x="397.515" y="111" type="curve" smooth="yes"/>
      <point x="283.803" y="111"/>
      <point x="206" y="184"/>
      <point x="206" y="354" type="curve" smooth="yes"/>
      <point x="206" y="524"/>
      <point x="283.796" y="589"/>
      <point x="397.499" y="589" type="curve" smooth="yes"/>
      <point x="474.298" y="589"/>
      <point x="539.128" y="559"/>
      <point x="588" y="501" type="curve"/>
      <point x="683" y="596" type="line"/>
      <point x="622" y="670"/>
      <point x="518" y="720"/>
      <point x="384" y="720" type="curve" smooth="yes"/>
      <point x="174" y="720"/>
      <point x="38" y="597"/>
      <point x="38" y="348" type="curve" smooth="yes"/>
      <point x="38" y="105"/>
      <point x="177" y="-20"/>
      <point x="351" y="-20" type="curve" smooth="yes"/>
      <point x="515" y="-20"/>
      <point x="635" y="90"/>
    </contour>
  </outline>
</glyph>
<glyph name="I" format="2">
  <advance width="326"/>
  <unicode hex="0049"/>
  <anchor x="163" y="719" name="top"/>
  <anchor x="163" y="-20" name="bottom"/>
  <anchor x="239" y="-3" name="ogonek"/>
  <anchor x="-33" y="500" name="topgr"/>
  <outline>
    <contour>
      <point x="80" y="0" type="line"/>
      <point x="246" y="0" type="line"/>
      <point x="246" y="700" type="line"/>
      <point x="80" y="700" type="line"/>
    </contour>
  </outline>
</glyph>
<glyph name="J" format="2">
  <advance width="580"/>
  <unicode hex="004A"/>
  <anchor x="278" y="-20" name="bottom"/>
  <anchor x="433" y="719" name="top"/>
  <outline>
    <contour>
      <point x="27" y="122" type="line"/>
      <point x="86" y="30"/>
      <point x="168" y="-20"/>
      <point x="278" y="-20" type="curve" smooth="yes"/>
      <point x="424" y="-20"/>
      <point x="517" y="67"/>
      <point x="517" y="222" type="curve" smooth="yes"/>
      <point x="517" y="700" type="line"/>
      <point x="351" y="700" type="line"/>
      <point x="351" y="240" type="line" smooth="yes"/>
      <point x="351" y="148"/>
      <point x="327" y="110"/>
      <point x="269" y="110" type="curve" smooth="yes"/>
      <point x="217" y="110"/>
      <point x="178" y="140"/>
      <point x="122" y="217" type="curve"/>
    </contour>
  </outline>
</glyph>
<glyph name="K" format="2">
  <advance width="670"/>
  <unicode hex="004B"/>
  <anchor x="335" y="719" name="top"/>
  <anchor x="335" y="-20" name="bottom"/>
  <outline>
    <contour>
      <point x="58" y="0" type="line"/>
      <point x="58" y="700" type="line"/>
      <point x="224" y="700" type="line"/>
      <point x="224" y="0" type="line"/>
    </contour>
    <contour>
      <point x="106" y="287" type="line"/>
      <point x="117" y="421" type="line"/>
      <point x="320" y="421" type="line"/>
      <point x="481" y="700" type="line"/>
      <point x="655" y="700" type="line"/>
      <point x="447" y="367" type="line"/>
      <point x="659" y="0" type="line"/>
      <point x="467" y="0" type="line"/>
      <point x="308" y="287" type="line"/>
    </contour>
  </outline>
</glyph>
<glyph name="P" format="2">
  <advance width="644"/>
  <unicode hex="0050"/>
  <anchor x="322" y="719" name="top"/>
  <anchor x="322" y="-20" name="bottom"/>
  <outline>
    <contour>
      <point x="68" y="0" type="line"/>
      <point x="234" y="0" type="line"/>
      <point x="234" y="216" type="line"/>
      <point x="334" y="216" type="line" smooth="yes"/>
      <point x="524" y="216"/>
      <point x="605" y="334"/>
      <point x="605" y="460" type="curve" smooth="yes"/>
      <point x="605" y="585"/>
      <point x="524" y="700"/>
      <point x="334" y="700" type="curve" smooth="yes"/>
      <point x="68" y="700" type="line"/>
    </contour>
    <contour>
      <point x="234" y="347" type="line"/>
      <point x="234" y="570" type="line"/>
      <point x="299" y="570" type="line" smooth="yes"/>
      <point x="381" y="570"/>
      <point x="438" y="537"/>
      <point x="438" y="458" type="curve" smooth="yes"/>
      <point x="438" y="380"/>
      <point x="382" y="347"/>
      <point x="299" y="347" type="curve" smooth="yes"/>
    </contour>
  </outline>
</glyph>
<glyph name="U" format="2">
  <advance width="675"/>
  <unicode hex="0055"/>
  <anchor x="338" y="719" name="top"/>
  <anchor x="338" y="-20" name="bottom"/>
  <anchor x="450" y="-1" name="ogonek"/>
  <outline>
    <contour>
      <point x="60" y="700" type="line"/>
      <point x="60" y="262" type="line" smooth="yes"/>
      <point x="60" y="88"/>
      <point x="165" y="-20"/>
      <point x="336" y="-20" type="curve" smooth="yes"/>
      <point x="507" y="-20"/>
      <point x="615" y="89"/>
      <point x="615" y="262" type="curve" smooth="yes"/>
      <point x="615" y="700" type="line"/>
      <point x="449" y="700" type="line"/>
      <point x="449" y="285" type="line" smooth="yes"/>
      <point x="449" y="168"/>
      <point x="412" y="110"/>
      <point x="338" y="110" type="curve" smooth="yes"/>
      <point x="263" y="110"/>
      <point x="226" y="168"/>
      <point x="226" y="285" type="curve" smooth="yes"/>
      <point x="226" y="700" type="line"/>
    </contour>
  </outline>
</glyph>
<glyph name="Y" format="2">
  <advance width="662"/>
  <unicode hex="0059"/>
  <anchor x="331" y="719" name="top"/>
  <anchor x="331" y="-20" name="bottom"/>
  <anchor x="-95" y="500" name="topgr"/>
  <outline>
    <contour>
      <point x="248" y="0" type="line"/>
      <point x="414" y="0" type="line"/>
      <point x="414" y="284" type="line"/>
      <point x="654" y="700" type="line"/>
      <point x="463" y="700" type="line"/>
      <point x="331" y="452" type="line"/>
      <point x="199" y="700" type="line"/>
      <point x="8" y="700" type="line"/>
      <point x="248" y="284" type="line"/>
    </contour>
  </outline>
</glyph>
<glyph name="h" format="2">
  <advance width="635"/>
  <unicode hex="0068"/>
  <anchor x="318" y="-20" name="bottom"/>
  <anchor x="141" y="750" name="top"/>
  <outline>
    <contour>
      <point x="59" y="0" type="line"/>
      <point x="224" y="0" type="line"/>
      <point x="224" y="750" type="line"/>
      <point x="59" y="750" type="line"/>
    </contour>
    <contour>
      <point x="411" y="0" type="line"/>
      <point x="576" y="0" type="line"/>
      <point x="576" y="304" type="line" smooth="yes"/>
      <point x="576" y="448"/>
      <point x="515" y="520"/>
      <point x="400" y="520" type="curve" smooth="yes"/>
      <point x="291" y="520"/>
      <point x="227" y="428"/>
      <point x="210" y="350" type="curve"/>
      <point x="212" y="278" type="line"/>
      <point x="224" y="217" type="line"/>
      <point x="224" y="312"/>
      <point x="260" y="396"/>
      <point x="337" y="396" type="curve" smooth="yes"/>
      <point x="383" y="396"/>
      <point x="411" y="367"/>
      <point x="411" y="272" type="curve" smooth="yes"/>
    </contour>
  </outline>
</glyph>
<glyph name="m" format="2">
  <advance width="943"/>
  <unicode hex="006D"/>
  <anchor x="472" y="520" name="top"/>
  <anchor x="472" y="-20" name="bottom"/>
  <outline>
    <contour>
      <point x="64" y="0" type="line"/>
      <point x="229" y="0" type="line"/>
      <point x="229" y="500" type="line"/>
      <point x="64" y="500" type="line"/>
    </contour>
    <contour>
      <point x="389" y="0" type="line"/>
      <point x="554" y="0" type="line"/>
      <point x="554" y="304" type="line" smooth="yes"/>
      <point x="554" y="448"/>
      <point x="497" y="520"/>
      <point x="400" y="520" type="curve" smooth="yes"/>
      <point x="291" y="520"/>
      <point x="231" y="428"/>
      <point x="215" y="350" type="curve"/>
      <point x="217" y="278" type="line"/>
      <point x="229" y="217" type="line"/>
      <point x="229" y="312"/>
      <point x="260" y="396"/>
      <point x="326" y="396" type="curve" smooth="yes"/>
      <point x="364" y="396"/>
      <point x="389" y="367"/>
      <point x="389" y="272" type="curve" smooth="yes"/>
    </contour>
    <contour>
      <point x="714" y="0" type="line"/>
      <point x="879" y="0" type="line"/>
      <point x="879" y="304" type="line" smooth="yes"/>
      <point x="879" y="448"/>
      <point x="822" y="520"/>
      <point x="725" y="520" type="curve" smooth="yes"/>
      <point x="616" y="520"/>
      <point x="556" y="428"/>
      <point x="540" y="350" type="curve"/>
      <point x="542" y="278" type="line"/>
      <point x="554" y="217" type="line"/>
      <point x="554" y="312"/>
      <point x="585" y="396"/>
      <point x="651" y="396" type="curve" smooth="yes"/>
      <point x="689" y="396"/>
      <point x="714" y="367"/>
      <point x="714" y="272" type="curve" smooth="yes"/>
    </contour>
  </outline>
</glyph>
<glyph name="o" format="2">
  <advance width="616"/>
  <unicode hex="006F"/>
  <anchor x="417" y="-3" name="ogonek"/>
  <anchor x="308" y="520" name="top"/>
  <anchor x="308" y="-20" name="bottom"/>
  <anchor x="308" y="520" name="topgr"/>
  <outline>
    <contour>
      <point x="308" y="-20" type="curve" smooth="yes"/>
      <point x="473" y="-20"/>
      <point x="577" y="80"/>
      <point x="577" y="255" type="curve" smooth="yes"/>
      <point x="577" y="431"/>
      <point x="469" y="520"/>
      <point x="308" y="520" type="curve" smooth="yes"/>
      <point x="155" y="520"/>
      <point x="39" y="429"/>
      <point x="39" y="255" type="curve" smooth="yes"/>
      <point x="39" y="89"/>
      <point x="147" y="-20"/>
    </contour>
    <contour>
      <point x="305" y="103" type="curve" smooth="yes"/>
      <point x="239" y="103"/>
      <point x="204" y="155"/>
      <point x="204" y="254" type="curve" smooth="yes"/>
      <point x="204" y="349"/>
      <point x="238" y="396"/>
      <point x="306" y="396" type="curve" smooth="yes"/>
      <point x="376" y="396"/>
      <point x="412" y="347"/>
      <point x="412" y="252" type="curve" smooth="yes"/>
      <point x="412" y="156"/>
      <point x="374" y="103"/>
    </contour>
  </outline>
</glyph>
<glyph name="s" format="2">
  <advance width="507"/>
  <unicode hex="0073"/>
  <anchor x="253" y="520" name="top"/>
  <anchor x="253" y="-20" name="bottom"/>
  <outline>
    <contour>
      <point x="28" y="73" type="line"/>
      <point x="76" y="14"/>
      <point x="153" y="-20"/>
      <point x="243" y="-20" type="curve" smooth="yes"/>
      <point x="367" y="-20"/>
      <point x="469" y="45"/>
      <point x="469" y="147" type="curve" smooth="yes"/>
      <point x="469" y="214"/>
      <point x="424" y="268"/>
      <point x="284" y="307" type="curve" smooth="yes"/>
      <point x="236" y="321"/>
      <point x="201" y="326"/>
      <point x="201" y="359" type="curve" smooth="yes"/>
      <point x="201" y="381"/>
      <point x="217" y="397"/>
      <point x="257" y="397" type="curve" smooth="yes"/>
      <point x="301" y="397"/>
      <point x="347" y="377"/>
      <point x="374" y="342" type="curve"/>
      <point x="459" y="427" type="line"/>
      <point x="411" y="486"/>
      <point x="334" y="520"/>
      <point x="237" y="520" type="curve" smooth="yes"/>
      <point x="121" y="520"/>
      <point x="36" y="450"/>
      <point x="36" y="357" type="curve" smooth="yes"/>
      <point x="36" y="283"/>
      <point x="91" y="224"/>
      <point x="219" y="198" type="curve" smooth="yes"/>
      <point x="253" y="191"/>
      <point x="304" y="184"/>
      <point x="304" y="148" type="curve" smooth="yes"/>
      <point x="304" y="122"/>
      <point x="276" y="103"/>
      <point x="232" y="103" type="curve" smooth="yes"/>
      <point x="186" y="103"/>
      <point x="140" y="123"/>
      <point x="113" y="158" type="curve"/>
    </contour>
  </outline>
</glyph>
<glyph name="y" format="2">
  <advance width="626"/>
  <unicode hex="0079"/>
  <anchor x="313" y="520" name="top"/>
  <anchor x="557" y="-69" name="bottom"/>
  <outline>
    <contour>
      <point x="408" y="283" type="line"/>
      <point x="408" y="172"/>
      <point x="376" y="124"/>
      <point x="307" y="124" type="curve" smooth="yes"/>
      <point x="244" y="124"/>
      <point x="224" y="164"/>
      <point x="224" y="287" type="curve" smooth="yes"/>
      <point x="224" y="500" type="line"/>
      <point x="59" y="500" type="line"/>
      <point x="59" y="216" type="line" smooth="yes"/>
      <point x="59" y="69"/>
      <point x="132" y="0"/>
      <point x="253" y="0" type="curve" smooth="yes"/>
      <point x="364" y="0"/>
      <point x="414" y="58"/>
      <point x="434" y="130" type="curve"/>
    </contour>
    <contour>
      <point x="60" y="-127" type="line"/>
      <point x="110" y="-188"/>
      <point x="190" y="-220"/>
      <point x="289" y="-220" type="curve" smooth="yes"/>
      <point x="463" y="-220"/>
      <point x="572" y="-121"/>
      <point x="572" y="52" type="curve" smooth="yes"/>
      <point x="572" y="500" type="line"/>
      <point x="408" y="500" type="line"/>
      <point x="408" y="68" type="line" smooth="yes"/>
      <point x="408" y="-56"/>
      <point x="347" y="-97"/>
      <point x="271" y="-97" type="curve" smooth="yes"/>
      <point x="218" y="-97"/>
      <point x="172" y="-77"/>
      <point x="145" y="-42" type="curve"/>
    </contour>
  </outline>
</glyph>
<glyph name="z" format="2">
  <advance width="483"/>
  <unicode hex="007A"/>
  <anchor x="241" y="520" name="top"/>
  <anchor x="241" y="-20" name="bottom"/>
  <outline>
    <contour>
      <point x="26" y="0" type="line"/>
      <point x="457" y="0" type="line"/>
      <point x="457" y="120" type="line"/>
      <point x="239" y="120" type="line"/>
      <point x="457" y="389.71" type="line"/>
      <point x="457" y="500" type="line"/>
      <point x="46" y="500" type="line"/>
      <point x="46" y="380" type="line"/>
      <point x="244" y="380" type="line"/>
      <point x="26" y="110.29" type="line"/>
    </contour>
  </outline>
</glyph>
<glyph name="braceright" format="2">
  <advance width="366"/>
  <unicode hex="007D"/>
  <outline>
    <contour>
      <point x="52" y="-336" type="line"/>
      <point x="188" y="-268.35"/>
      <point x="244" y="-174.229"/>
      <point x="244" y="-75.2055" type="curve" smooth="yes"/>
      <point x="244" y="165" type="line" smooth="yes"/>
      <point x="244" y="236"/>
      <point x="302" y="272"/>
      <point x="344" y="282" type="curve"/>
      <point x="344" y="299" type="line"/>
      <point x="282" y="310"/>
      <point x="244" y="372"/>
      <point x="244" y="422" type="curve" smooth="yes"/>
      <point x="244" y="604.027" type="line" smooth="yes"/>
      <point x="244" y="700.154"/>
      <point x="188" y="803.439"/>
      <point x="52" y="874" type="curve"/>
      <point x="34" y="826" type="line"/>
      <point x="86" y="794.199"/>
      <point x="108" y="732.649"/>
      <point x="108" y="609.548" type="curve" smooth="yes"/>
      <point x="108" y="429" type="line" smooth="yes"/>
      <point x="108" y="365"/>
      <point x="130" y="315"/>
      <point x="224" y="289" type="curve"/>
      <point x="127" y="261"/>
      <point x="108" y="203"/>
      <point x="108" y="139" type="curve" smooth="yes"/>
      <point x="108" y="-82.8055" type="line" smooth="yes"/>
      <point x="108" y="-202.014"/>
      <point x="86" y="-257.709"/>
      <point x="34" y="-288" type="curve"/>
    </contour>
  </outline>
</glyph>
<glyph name="logicalnot" format="2">
  <advance width="553"/>
  <unicode hex="00AC"/>
  <outline>
    <contour>
      <point x="50" y="292" type="line"/>
      <point x="435" y="292" type="line"/>
      <point x="435" y="93" type="line"/>
      <point x="483" y="93" type="line"/>
      <point x="483" y="322" type="line"/>
      <point x="50" y="322" type="line"/>
    </contour>
  </outline>
</glyph>
<glyph name="registered" format="2">
  <advance width="817"/>
  <unicode hex="00AE"/>
  <outline>
    <contour>
      <point x="45" y="355" type="curve" smooth="yes"/>
      <point x="45" y="137"/>
      <point x="234" y="12"/>
      <point x="412" y="12" type="curve" smooth="yes"/>
      <point x="590" y="12"/>
      <point x="774" y="138"/>
      <point x="774" y="355" type="curve" smooth="yes"/>
      <point x="774" y="572"/>
      <point x="597" y="688"/>
      <point x="412" y="688" type="curve" smooth="yes"/>
      <point x="228" y="688"/>
      <point x="45" y="573"/>
    </contour>
    <contour>
      <point x="105" y="354" type="curve" smooth="yes"/>
      <point x="105" y="513"/>
      <point x="232" y="628"/>
      <point x="410" y="628" type="curve" smooth="yes"/>
      <point x="586" y="628"/>
      <point x="714" y="514"/>
      <point x="714" y="350" type="curve" smooth="yes"/>
      <point x="714" y="186"/>
      <point x="574" y="72"/>
      <point x="410" y="72" type="curve" smooth="yes"/>
      <point x="244" y="72"/>
      <point x="105" y="195"/>
    </contour>
    <contour>
      <point x="256.8" y="150" type="line"/>
      <point x="356.4" y="150" type="line"/>
      <point x="356.4" y="469.2" type="line"/>
      <point x="404.4" y="469.2" type="line" smooth="yes"/>
      <point x="462" y="469.2"/>
      <point x="481.2" y="450.72"/>
      <point x="481.2" y="414.32" type="curve" smooth="yes"/>
      <point x="481.2" y="377.92"/>
      <point x="462" y="359.44"/>
      <point x="404.4" y="359.44" type="curve" smooth="yes"/>
      <point x="276" y="359.44" type="line"/>
      <point x="276" y="286.64" type="line"/>
      <point x="424.8" y="286.64" type="line" smooth="yes"/>
      <point x="520.2" y="286.64"/>
      <point x="581.4" y="337.04"/>
      <point x="581.4" y="416.56" type="curve" smooth="yes"/>
      <point x="581.4" y="494.4"/>
      <point x="522.6" y="542"/>
      <point x="424.8" y="542" type="curve" smooth="yes"/>
      <point x="256.8" y="542" type="line"/>
    </contour>
    <contour>
      <point x="487.4" y="150" type="line"/>
      <point x="594.2" y="150" type="line"/>
      <point x="492.2" y="336.48" type="line"/>
      <point x="401.6" y="307.36" type="line"/>
    </contour>
  </outline>
</glyph>
<glyph name="paragraph" format="2">
  <advance width="590"/>
  <unicode hex="00B6"/>
  <outline>
    <contour>
      <point x="338" y="-132" type="line"/>
      <point x="386" y="-132" type="line"/>
      <point x="386" y="731" type="line"/>
      <point x="476" y="731" type="line"/>
      <point x="476" y="-132" type="line"/>
      <point x="524" y="-132" type="line"/>
      <point x="524" y="751" type="line"/>
      <point x="308" y="751" type="line" smooth="yes"/>
      <point x="129" y="751"/>
      <point x="50" y="663"/>
      <point x="50" y="523" type="curve" smooth="yes"/>
      <point x="50" y="383"/>
      <point x="108" y="282"/>
      <point x="308" y="282" type="curve" smooth="yes"/>
      <point x="338" y="282" type="line"/>
    </contour>
  </outline>
</glyph>
<glyph name="onesuperior" format="2">
  <advance width="333"/>
  <unicode hex="00B9"/>
  <outline>
    <contour>
      <point x="176" y="343" type="line"/>
      <point x="291" y="343" type="line"/>
      <point x="291" y="828" type="line"/>
      <point x="197" y="828" type="line"/>
      <point x="160" y="767"/>
      <point x="90" y="715"/>
      <point x="27" y="700" type="curve"/>
      <point x="27" y="606" type="line"/>
      <point x="92" y="619"/>
      <point x="145" y="647"/>
      <point x="176" y="683" type="curve"/>
    </contour>
  </outline>
</glyph>
<glyph name="AE" format="2">
  <advance width="880"/>
  <unicode hex="00C6"/>
  <anchor x="480" y="719" name="top"/>
  <anchor x="480" y="-20" name="bottom"/>
  <outline>
    <contour>
      <point x="398" y="0" type="line"/>
      <point x="835" y="0" type="line"/>
      <point x="835" y="130" type="line"/>
      <point x="564" y="130" type="line"/>
      <point x="564" y="300" type="line"/>
      <point x="795" y="300" type="line"/>
      <point x="795" y="430" type="line"/>
      <point x="564" y="430" type="line"/>
      <point x="564" y="570" type="line"/>
      <point x="820" y="570" type="line"/>
      <point x="820" y="700" type="line"/>
      <point x="398" y="700" type="line"/>
    </contour>
    <contour>
      <point x="213" y="570" type="line"/>
      <point x="499" y="570" type="line"/>
      <point x="500" y="700" type="line"/>
      <point x="257" y="700" type="line"/>
    </contour>
    <contour>
      <point x="193" y="111" type="line"/>
      <point x="527" y="111" type="line"/>
      <point x="483" y="241" type="line"/>
      <point x="237" y="241" type="line"/>
    </contour>
    <contour>
      <point x="7" y="0" type="line"/>
      <point x="181" y="0" type="line"/>
      <point x="382" y="700" type="line"/>
      <point x="234" y="700" type="line"/>
    </contour>
  </outline>
</glyph>
<glyph name="Ccedilla" format="2">
  <advance width="694"/>
  <unicode hex="00C7"/>
  <anchor x="386" y="719" name="top"/>
  <anchor x="396" y="-218" name="bottom"/>
  <outline>
    <contour>
      <point x="567" y="202" type="line"/>
      <point x="518.266" y="144"/>
      <point x="455.609" y="110"/>
      <point x="389.967" y="110" type="curve" smooth="yes"/>
      <point x="277.582" y="110"/>
      <point x="201" y="209"/>
      <point x="201" y="358" type="curve" smooth="yes"/>
      <point x="201" y="499"/>
      <point x="269.622" y="589"/>
      <point x="383.992" y="589" type="curve" smooth="yes"/>
      <point x="450.625" y="589"/>
      <point x="515.268" y="559"/>
      <point x="564" y="501" type="curve"/>
      <point x="659" y="596" type="line"/>
      <point x="598" y="670"/>
      <point x="505" y="720"/>
      <point x="381" y="720" type="curve" smooth="yes"/>
      <point x="168" y="720"/>
      <point x="33" y="573"/>
      <point x="33" y="360" type="curve" smooth="yes"/>
      <point x="33" y="139"/>
      <point x="178" y="-20"/>
      <point x="396" y="-20" type="curve" smooth="yes"/>
      <point x="516" y="-20"/>
      <point x="591" y="28"/>
      <point x="662" y="107" type="curve"/>
    </contour>
    <contour>
      <point x="269" y="-205" type="line"/>
      <point x="291" y="-211"/>
      <point x="324" y="-218"/>
      <point x="371" y="-218" type="curve" smooth="yes"/>
      <point x="468" y="-218"/>
      <point x="520" y="-192"/>
      <point x="520" y="-133" type="curve" smooth="yes"/>
      <point x="520" y="-87"/>
      <point x="489" y="-64"/>
      <point x="419" y="-64" type="curve"/>
      <point x="466.224" y="19" type="line"/>
      <point x="373.224" y="19" type="line"/>
      <point x="308" y="-104" type="line"/>
      <point x="323" y="-102"/>
      <point x="341" y="-100"/>
      <point x="355" y="-100" type="curve" smooth="yes"/>
      <point x="388" y="-100"/>
      <point x="407" y="-111"/>
      <point x="407" y="-134" type="curve" smooth="yes"/>
      <point x="407" y="-155"/>
      <point x="391" y="-168"/>
      <point x="362" y="-168" type="curve" smooth="yes"/>
      <point x="344" y="-168"/>
      <point x="309" y="-163"/>
      <point x="289" y="-157" type="curve"/>
    </contour>
  </outline>
</glyph>
<glyph name="ccedilla" format="2">
  <advance width="563"/>
  <unicode hex="00E7"/>
  <anchor x="303" y="520" name="top"/>
  <anchor x="283" y="-218" name="bottom"/>
  <outline>
    <contour>
      <point x="436" y="158" type="line"/>
      <point x="409" y="123"/>
      <point x="359" y="104"/>
      <point x="308" y="104" type="curve" smooth="yes"/>
      <point x="229" y="104"/>
      <point x="194" y="155"/>
      <point x="194" y="254" type="curve" smooth="yes"/>
      <point x="194" y="349"/>
      <point x="233" y="396"/>
      <point x="307" y="396" type="curve" smooth="yes"/>
      <point x="354" y="396"/>
      <point x="405" y="377"/>
      <point x="432" y="342" type="curve"/>
      <point x="517" y="427" type="line"/>
      <point x="467" y="488"/>
      <point x="392" y="520"/>
      <point x="293" y="520" type="curve" smooth="yes"/>
      <point x="140" y="520"/>
      <point x="29" y="429"/>
      <point x="29" y="255" type="curve" smooth="yes"/>
      <point x="29" y="89"/>
      <point x="130" y="-20"/>
      <point x="291" y="-20" type="curve" smooth="yes"/>
      <point x="393" y="-20"/>
      <point x="471" y="12"/>
      <point x="521" y="73" type="curve"/>
    </contour>
    <contour>
      <point x="156" y="-205" type="line"/>
      <point x="178" y="-211"/>
      <point x="211" y="-218"/>
      <point x="258" y="-218" type="curve" smooth="yes"/>
      <point x="355" y="-218"/>
      <point x="407" y="-192"/>
      <point x="407" y="-133" type="curve" smooth="yes"/>
      <point x="407" y="-87"/>
      <point x="376" y="-64"/>
      <point x="306" y="-64" type="curve"/>
      <point x="353.224" y="19" type="line"/>
      <point x="260.224" y="19" type="line"/>
      <point x="195" y="-104" type="line"/>
      <point x="210" y="-102"/>
      <point x="228" y="-100"/>
      <point x="242" y="-100" type="curve" smooth="yes"/>
      <point x="275" y="-100"/>
      <point x="294" y="-111"/>
      <point x="294" y="-134" type="curve" smooth="yes"/>
      <point x="294" y="-155"/>
      <point x="278" y="-168"/>
      <point x="249" y="-168" type="curve" smooth="yes"/>
      <point x="231" y="-168"/>
      <point x="196" y="-163"/>
      <point x="176" y="-157" type="curve"/>
    </contour>
  </outline>
</glyph>
<glyph name="Aogonek" format="2">
  <advance width="655"/>
  <unicode hex="0104"/>
  <anchor x="328" y="719" name="top"/>
  <anchor x="328" y="-20" name="bottom"/>
  <anchor x="76" y="500" name="topgr"/>
  <outline>
    <contour>
      <point x="193" y="114" type="line"/>
      <point x="459" y="114" type="line"/>
      <point x="415" y="234" type="line"/>
      <point x="237" y="234" type="line"/>
    </contour>
    <contour>
      <point x="7" y="0" type="line"/>
      <point x="181" y="0" type="line"/>
      <point x="372" y="700" type="line"/>
      <point x="234" y="700" type="line"/>
    </contour>
    <contour>
      <point x="474" y="0" type="line"/>
      <point x="648" y="0" type="line"/>
      <point x="421" y="700" type="line"/>
      <point x="283" y="700" type="line"/>
    </contour>
    <contour>
      <point x="648" y="-182" type="line"/>
      <point x="605" y="-168"/>
      <point x="584" y="-137"/>
      <point x="584" y="-103" type="curve" smooth="yes"/>
      <point x="584" y="-66"/>
      <point x="608" y="-23"/>
      <point x="647" y="1" type="curve"/>
      <point x="608" y="4" type="line"/>
      <point x="512" y="-13"/>
      <point x="464" y="-52"/>
      <point x="464" y="-105" type="curve" smooth="yes"/>
      <point x="464" y="-157"/>
      <point x="510" y="-195"/>
      <point x="584" y="-205" type="curve"/>
    </contour>
  </outline>
</glyph>
<glyph name="aogonek" format="2">
  <advance width="645"/>
  <unicode hex="0105"/>
  <anchor x="329" y="520" name="top"/>
  <anchor x="323" y="-20" name="bottom"/>
  <outline>
    <contour>
      <point x="426" y="0" type="line"/>
      <point x="591" y="0" type="line"/>
      <point x="591" y="500" type="line"/>
      <point x="426" y="500" type="line"/>
    </contour>
    <contour>
      <point x="264" y="-20" type="curve" smooth="yes"/>
      <point x="388" y="-20"/>
      <point x="462" y="90"/>
      <point x="462" y="257" type="curve" smooth="yes"/>
      <point x="462" y="421"/>
      <point x="390" y="520"/>
      <point x="261" y="520" type="curve" smooth="yes"/>
      <point x="126" y="520"/>
      <point x="49" y="411"/>
      <point x="49" y="259" type="curve" smooth="yes"/>
      <point x="49" y="99"/>
      <point x="135" y="-20"/>
    </contour>
    <contour>
      <point x="323.517" y="106" type="curve" smooth="yes"/>
      <point x="260.218" y="106"/>
      <point x="214" y="168"/>
      <point x="214" y="256" type="curve" smooth="yes"/>
      <point x="214" y="341"/>
      <point x="256.199" y="393"/>
      <point x="319.498" y="393" type="curve" smooth="yes"/>
      <point x="384.806" y="393"/>
      <point x="426" y="337"/>
      <point x="426" y="251" type="curve" smooth="yes"/>
      <point x="426" y="166"/>
      <point x="385.81" y="106"/>
    </contour>
    <contour>
      <point x="592" y="-183" type="line"/>
      <point x="549" y="-169"/>
      <point x="528" y="-138"/>
      <point x="528" y="-104" type="curve" smooth="yes"/>
      <point x="528" y="-67"/>
      <point x="552" y="-24"/>
      <point x="591" y="0" type="curve"/>
      <point x="552" y="3" type="line"/>
      <point x="456" y="-14"/>
      <point x="408" y="-53"/>
      <point x="408" y="-106" type="curve" smooth="yes"/>
      <point x="408" y="-158"/>
      <point x="454" y="-196"/>
      <point x="528" y="-206" type="curve"/>
    </contour>
  </outline>
</glyph>
<glyph name="dcroat" format="2">
  <advance width="635"/>
  <unicode hex="0111"/>
  <outline>
    <contour>
      <point x="416" y="0" type="line"/>
      <point x="581" y="0" type="line"/>
      <point x="581" y="750" type="line"/>
      <point x="416" y="750" type="line"/>
    </contour>
    <contour>
      <point x="268" y="-20" type="curve" smooth="yes"/>
      <point x="377" y="-20"/>
      <point x="448" y="90"/>
      <point x="448" y="255" type="curve" smooth="yes"/>
      <point x="448" y="421"/>
      <point x="379" y="520"/>
      <point x="262" y="520" type="curve" smooth="yes"/>
      <point x="123" y="520"/>
      <point x="49" y="411"/>
      <point x="49" y="255" type="curve" smooth="yes"/>
      <point x="49" y="99"/>
      <point x="132" y="-20"/>
    </contour>
    <contour>
      <point x="318.517" y="106" type="curve" smooth="yes"/>
      <point x="255.204" y="106"/>
      <point x="214" y="165"/>
      <point x="214" y="256" type="curve" smooth="yes"/>
      <point x="214" y="344"/>
      <point x="252.189" y="393"/>
      <point x="319.522" y="393" type="curve" smooth="yes"/>
      <point x="376.806" y="393"/>
      <point x="416" y="337"/>
      <point x="416" y="257" type="curve" smooth="yes"/>
      <point x="416" y="166"/>
      <point x="377.811" y="106"/>
    </contour>
    <contour>
      <point x="235.455" y="631" type="line"/>
      <point x="646.447" y="631" type="line"/>
      <point x="646.447" y="665" type="line"/>
      <point x="235.455" y="665" type="line"/>
    </contour>
  </outline>
</glyph>
<glyph name="iogonek" format="2">
  <advance width="272"/>
  <unicode hex="012F"/>
  <anchor x="136" y="-20" name="bottom"/>
  <anchor x="136" y="706" name="top"/>
  <outline>
    <contour>
      <point x="54" y="0" type="line"/>
      <point x="219" y="0" type="line"/>
      <point x="219" y="500" type="line"/>
      <point x="54" y="500" type="line"/>
    </contour>
    <contour>
      <point x="51.7687" y="629.957" type="curve" smooth="yes"/>
      <point x="51.7687" y="592.618"/>
      <point x="81.4486" y="547.62"/>
      <point x="137.936" y="547.62" type="curve" smooth="yes"/>
      <point x="192.509" y="547.62"/>
      <point x="221.231" y="588.789"/>
      <point x="221.231" y="630.915" type="curve" smooth="yes"/>
      <point x="221.231" y="672.084"/>
      <point x="192.509" y="710.38"/>
      <point x="138.894" y="710.38" type="curve" smooth="yes"/>
      <point x="81.4486" y="710.38"/>
      <point x="51.7687" y="667.297"/>
    </contour>
    <contour>
      <point x="220" y="-183" type="line"/>
      <point x="177" y="-169"/>
      <point x="156" y="-138"/>
      <point x="156" y="-104" type="curve" smooth="yes"/>
      <point x="156" y="-67"/>
      <point x="180" y="-24"/>
      <point x="219" y="0" type="curve"/>
      <point x="180" y="3" type="line"/>
      <point x="84" y="-14"/>
      <point x="36" y="-53"/>
      <point x="36" y="-106" type="curve" smooth="yes"/>
      <point x="36" y="-158"/>
      <point x="82" y="-196"/>
      <point x="156" y="-206" type="curve"/>
    </contour>
  </outline>
</glyph>
<glyph name="lslash" format="2">
  <advance width="350"/>
  <unicode hex="0142"/>
  <outline>
    <contour>
      <point x="317" y="117" type="line"/>
      <point x="298" y="110"/>
      <point x="279" y="107"/>
      <point x="268" y="107" type="curve" smooth="yes"/>
      <point x="238" y="107"/>
      <point x="229" y="127"/>
      <point x="229" y="193" type="curve" smooth="yes"/>
      <point x="229" y="750" type="line"/>
      <point x="64" y="750" type="line"/>
      <point x="64" y="132" type="line" smooth="yes"/>
      <point x="64" y="33"/>
      <point x="115" y="-20"/>
      <point x="224" y="-20" type="curve" smooth="yes"/>
      <point x="263" y="-20"/>
      <point x="294" y="-13"/>
      <point x="341" y="3" type="curve"/>
    </contour>
    <contour>
      <point x="6" y="250" type="line"/>
      <point x="328" y="470" type="line"/>
      <point x="328" y="511" type="line"/>
      <point x="6" y="291" type="line"/>
    </contour>
  </outline>
</glyph>
<glyph name="tbar" format="2">
  <advance width="365"/>
  <unicode hex="0167"/>
  <outline>
    <contour>
      <point x="19" y="377" type="line"/>
      <point x="348" y="377" type="line"/>
      <point x="348" y="500" type="line"/>
      <point x="19" y="500" type="line"/>
    </contour>
    <contour>
      <point x="339" y="121" type="line"/>
      <point x="321.526" y="111"/>
      <point x="302.961" y="105"/>
      <point x="288.763" y="105" type="curve" smooth="yes"/>
      <point x="262.553" y="105"/>
      <point x="256" y="127"/>
      <point x="256" y="191" type="curve" smooth="yes"/>
      <point x="256" y="620" type="line"/>
      <point x="91" y="620" type="line"/>
      <point x="91" y="132" type="line" smooth="yes"/>
      <point x="91" y="35"/>
      <point x="146.39" y="-21"/>
      <point x="257.169" y="-21" type="curve" smooth="yes"/>
      <point x="304.353" y="-21"/>
      <point x="329.996" y="-11"/>
      <point x="370" y="6" type="curve"/>
    </contour>
    <contour>
      <point x="18.5" y="193.7" type="line"/>
      <point x="337.5" y="193.7" type="line"/>
      <point x="337.5" y="309.2" type="line"/>
      <point x="18.5" y="309.2" type="line"/>
    </contour>
  </outline>
</glyph>
<glyph name="florin" format="2">
  <advance width="533"/>
  <unicode hex="0192"/>
  <outline>
    <contour>
      <point x="-100" y="6" type="line"/>
      <point x="-38" y="-11"/>
      <point x="8" y="-17"/>
      <point x="56" y="-17" type="curve" smooth="yes"/>
      <point x="325" y="-17"/>
      <point x="302" y="171"/>
      <point x="302" y="353" type="curve" smooth="yes"/>
      <point x="302" y="490"/>
      <point x="289" y="597"/>
      <point x="389" y="597" type="curve" smooth="yes"/>
      <point x="420" y="597"/>
      <point x="465" y="587"/>
      <point x="519" y="569" type="curve"/>
      <point x="544" y="696" type="line"/>
      <point x="482" y="713"/>
      <point x="436" y="719"/>
      <point x="389" y="719" type="curve" smooth="yes"/>
      <point x="137" y="719"/>
      <point x="134" y="547"/>
      <point x="134" y="406" type="curve" smooth="yes"/>
      <point x="134" y="191"/>
      <point x="141" y="105"/>
      <point x="48" y="105" type="curve" smooth="yes"/>
      <point x="21" y="105"/>
      <point x="-20" y="112"/>
      <point x="-77" y="131" type="curve"/>
    </contour>
    <contour>
      <point x="19" y="372" type="line"/>
      <point x="485" y="372" type="line"/>
      <point x="485" y="494" type="line"/>
      <point x="19" y="494" type="line"/>
    </contour>
  </outline>
</glyph>
<glyph name="acutecomb" format="2">
  <advance width="287"/>
  <unicode hex="0301"/>
  <anchor x="142" y="700" name="top"/>
  <anchor x="126" y="500" name="_top"/>
  <outline>
    <contour>
      <point x="72" y="550" type="line"/>
      <point x="170" y="550" type="line"/>
      <point x="277" y="701" type="line"/>
      <point x="143" y="701" type="line"/>
    </contour>
  </outline>
</glyph>
<glyph name="dieresiscomb" format="2">
  <advance width="407"/>
  <unicode hex="0308"/>
  <anchor x="204" y="669" name="top"/>
  <anchor x="204" y="500" name="_top"/>
  <anchor x="204" y="500" name="_topgr"/>
  <outline>
    <contour>
      <point x="20.803" y="611" type="curve" smooth="yes"/>
      <point x="20.803" y="575.992"/>
      <point x="49.3621" y="532.693"/>
      <point x="103.716" y="532.693" type="curve" smooth="yes"/>
      <point x="156.228" y="532.693"/>
      <point x="183.866" y="572.307"/>
      <point x="183.866" y="611" type="curve" smooth="yes"/>
      <point x="183.866" y="652.457"/>
      <point x="156.228" y="689.307"/>
      <point x="103.716" y="689.307" type="curve" smooth="yes"/>
      <point x="49.3621" y="689.307"/>
      <point x="20.803" y="647.85"/>
    </contour>
    <contour>
      <point x="223.134" y="611" type="curve" smooth="yes"/>
      <point x="223.134" y="575.992"/>
      <point x="250.772" y="532.693"/>
      <point x="305.126" y="532.693" type="curve" smooth="yes"/>
      <point x="357.638" y="532.693"/>
      <point x="386.197" y="572.307"/>
      <point x="386.197" y="611" type="curve" smooth="yes"/>
      <point x="386.197" y="652.457"/>
      <point x="357.638" y="689.307"/>
      <point x="305.126" y="689.307" type="curve" smooth="yes"/>
      <point x="250.772" y="689.307"/>
      <point x="223.134" y="647.85"/>
    </contour>
  </outline>
</glyph>
<glyph name="commaaccentcomb" format="2">
  <advance width="246"/>
  <unicode hex="0326"/>
  <anchor x="123" y="-248" name="bottom"/>
  <anchor x="123" y="0" name="_bottom"/>
  <outline>
    <contour>
      <point x="84" y="-277" type="line"/>
      <point x="147" y="-259.084"/>
      <point x="188" y="-199.363"/>
      <point x="188" y="-138.647" type="curve" smooth="yes"/>
      <point x="188" y="-97.8372"/>
      <point x="169" y="-63"/>
      <point x="121" y="-63" type="curve" smooth="yes"/>
      <point x="84" y="-63"/>
      <point x="58" y="-83.8108"/>
      <point x="58" y="-118.495" type="curve" smooth="yes"/>
      <point x="58" y="-153.18"/>
      <point x="84" y="-173"/>
      <point x="113" y="-173" type="curve" smooth="yes"/>
      <point x="124" y="-173"/>
      <point x="136" y="-170"/>
      <point x="138" y="-166" type="curve"/>
      <point x="135" y="-197"/>
      <point x="108" y="-229"/>
      <point x="66" y="-250" type="curve"/>
    </contour>
  </outline>
</glyph>
<glyph name="Psi" format="2">
  <advance width="883"/>
  <unicode hex="03A8"/>
  <anchor x="442" y="720" name="topgr"/>
  <outline>
    <contour>
      <point x="359" y="0" type="line"/>
      <point x="523" y="0" type="line"/>
      <point x="523" y="700" type="line"/>
      <point x="359" y="700" type="line"/>
    </contour>
    <contour>
      <point x="60" y="701" type="line"/>
      <point x="60" y="432" type="line" smooth="yes"/>
      <point x="60" y="262"/>
      <point x="207" y="159"/>
      <point x="441" y="159" type="curve" smooth="yes"/>
      <point x="675" y="159"/>
      <point x="823" y="261"/>
      <point x="823" y="432" type="curve" smooth="yes"/>
      <point x="823" y="701" type="line"/>
      <point x="657" y="701" type="line"/>
      <point x="657" y="437" type="line" smooth="yes"/>
      <point x="657" y="331"/>
      <point x="591" y="289"/>
      <point x="444" y="289" type="curve" smooth="yes"/>
      <point x="296" y="289"/>
      <point x="226" y="333"/>
      <point x="226" y="437" type="curve" smooth="yes"/>
      <point x="226" y="701" type="line"/>
    </contour>
  </outline>
</glyph>
<glyph name="beta" format="2">
  <advance width="630"/>
  <unicode hex="03B2"/>
  <anchor x="315" y="721" name="topgr"/>
  <outline>
    <contour>
      <point x="59" y="-200" type="line"/>
      <point x="224" y="-200" type="line"/>
      <point x="224" y="449" type="line" smooth="yes"/>
      <point x="224" y="555"/>
      <point x="251" y="596"/>
      <point x="317" y="596" type="curve" smooth="yes"/>
      <point x="374" y="596"/>
      <point x="404" y="568.698"/>
      <point x="404" y="513.084" type="curve" smooth="yes"/>
      <point x="404" y="448.052"/>
      <point x="374.242" y="415"/>
      <point x="315.689" y="415" type="curve" smooth="yes"/>
      <point x="253" y="415" type="line"/>
      <point x="253" y="305" type="line"/>
      <point x="333" y="305" type="line" smooth="yes"/>
      <point x="406" y="305"/>
      <point x="435" y="268"/>
      <point x="435" y="207" type="curve" smooth="yes"/>
      <point x="435" y="127"/>
      <point x="386" y="103"/>
      <point x="330" y="103" type="curve" smooth="yes"/>
      <point x="279" y="103"/>
      <point x="224" y="132"/>
      <point x="224" y="219" type="curve"/>
      <point x="192" y="90" type="line"/>
      <point x="231" y="10"/>
      <point x="307" y="-20"/>
      <point x="380.892" y="-20" type="curve" smooth="yes"/>
      <point x="506" y="-20"/>
      <point x="600" y="66.7088"/>
      <point x="600" y="190.723" type="curve" smooth="yes"/>
      <point x="600" y="280.456"/>
      <point x="556" y="347"/>
      <point x="431" y="369" type="curve"/>
      <point x="528" y="388"/>
      <point x="569" y="444.488"/>
      <point x="569" y="528.725" type="curve" smooth="yes"/>
      <point x="569" y="648.638"/>
      <point x="477" y="719"/>
      <point x="322" y="719" type="curve" smooth="yes"/>
      <point x="170" y="719"/>
      <point x="59" y="655"/>
      <point x="59" y="516" type="curve" smooth="yes"/>
    </contour>
  </outline>
</glyph>
<glyph name="delta" format="2">
  <advance width="616"/>
  <unicode hex="03B4"/>
  <anchor x="308" y="721" name="topgr"/>
  <outline>
    <contour>
      <point x="305" y="103" type="curve" smooth="yes"/>
      <point x="235" y="103"/>
      <point x="204" y="143"/>
      <point x="204" y="220" type="curve" smooth="yes"/>
      <point x="204" y="304"/>
      <point x="240" y="345"/>
      <point x="309" y="345" type="curve" smooth="yes"/>
      <point x="378" y="345"/>
      <point x="412" y="305"/>
      <point x="412" y="226" type="curve" smooth="yes"/>
      <point x="412" y="144"/>
      <point x="376" y="103"/>
    </contour>
    <contour>
      <point x="39" y="226" type="curve" smooth="yes"/>
      <point x="39" y="82"/>
      <point x="143" y="-20"/>
      <point x="309" y="-20" type="curve" smooth="yes"/>
      <point x="470" y="-20"/>
      <point x="577" y="75"/>
      <point x="577" y="226" type="curve" smooth="yes"/>
      <point x="577" y="376"/>
      <point x="471" y="467"/>
      <point x="310" y="467" type="curve" smooth="yes"/>
      <point x="142" y="467"/>
      <point x="39" y="369"/>
    </contour>
    <contour>
      <point x="439" y="443" type="line"/>
      <point x="376.359" y="467.782"/>
      <point x="275" y="507"/>
      <point x="275" y="559" type="curve" smooth="yes"/>
      <point x="275" y="581"/>
      <point x="291" y="597"/>
      <point x="332" y="597" type="curve" smooth="yes"/>
      <point x="375" y="597"/>
      <point x="421" y="579"/>
      <point x="448" y="552" type="curve"/>
      <point x="533" y="637" type="line"/>
      <point x="485" y="688"/>
      <point x="408" y="720"/>
      <point x="318" y="720" type="curve" smooth="yes"/>
      <point x="195" y="720"/>
      <point x="110" y="660"/>
      <point x="110" y="574" type="curve" smooth="yes"/>
      <point x="110" y="493"/>
      <point x="185" y="445"/>
      <point x="302" y="438" type="curve"/>
    </contour>
  </outline>
</glyph>
<glyph name="epsilon" format="2">
  <advance width="505"/>
  <unicode hex="03B5"/>
  <anchor x="253" y="520" name="topgr"/>
  <outline>
    <contour>
      <point x="373" y="170" type="line"/>
      <point x="338" y="122"/>
      <point x="297" y="103"/>
      <point x="254" y="103" type="curve" smooth="yes"/>
      <point x="216" y="103"/>
      <point x="194" y="118"/>
      <point x="194" y="143" type="curve" smooth="yes"/>
      <point x="194" y="182"/>
      <point x="245" y="198"/>
      <point x="363" y="198" type="curve"/>
      <point x="363" y="308" type="line"/>
      <point x="244.208" y="308"/>
      <point x="213" y="317"/>
      <point x="213" y="352" type="curve" smooth="yes"/>
      <point x="213" y="381"/>
      <point x="234.135" y="397"/>
      <point x="267.348" y="397" type="curve" smooth="yes"/>
      <point x="297.542" y="397"/>
      <point x="328.742" y="383"/>
      <point x="369" y="337" type="curve"/>
      <point x="459" y="427" type="line"/>
      <point x="415" y="482"/>
      <point x="345" y="520"/>
      <point x="238" y="520" type="curve" smooth="yes"/>
      <point x="96" y="520"/>
      <point x="48" y="452.195"/>
      <point x="48" y="381.309" type="curve" smooth="yes"/>
      <point x="48" y="318.641"/>
      <point x="85" y="257"/>
      <point x="214" y="253" type="curve"/>
      <point x="82" y="243"/>
      <point x="29" y="200.008"/>
      <point x="29" y="127.97" type="curve" smooth="yes"/>
      <point x="29" y="49.1174"/>
      <point x="88" y="-20"/>
      <point x="234" y="-20" type="curve" smooth="yes"/>
      <point x="351" y="-20"/>
      <point x="425" y="25"/>
      <point x="463" y="80" type="curve"/>
    </contour>
  </outline>
</glyph>
<glyph name="eta" format="2">
  <advance width="630"/>
  <unicode hex="03B7"/>
  <anchor x="300" y="520" name="topgr"/>
  <outline>
    <contour>
      <point x="79" y="0" type="line"/>
      <point x="244" y="0" type="line"/>
      <point x="244" y="384" type="line" smooth="yes"/>
      <point x="244" y="482"/>
      <point x="178" y="520"/>
      <point x="23" y="520" type="curve"/>
      <point x="23" y="397" type="line"/>
      <point x="60" y="397"/>
      <point x="79" y="382"/>
      <point x="79" y="322" type="curve" smooth="yes"/>
    </contour>
    <contour>
      <point x="406" y="-200" type="line"/>
      <point x="571" y="-200" type="line"/>
      <point x="571" y="304" type="line" smooth="yes"/>
      <point x="571" y="448"/>
      <point x="511" y="520"/>
      <point x="406" y="520" type="curve" smooth="yes"/>
      <point x="301" y="520"/>
      <point x="240" y="448"/>
      <point x="221" y="370" type="curve"/>
      <point x="223" y="287" type="line"/>
      <point x="244" y="217" type="line"/>
      <point x="244" y="312"/>
      <point x="266" y="396"/>
      <point x="338" y="396" type="curve" smooth="yes"/>
      <point x="380" y="396"/>
      <point x="406" y="367"/>
      <point x="406" y="271" type="curve" smooth="yes"/>
    </contour>
  </outline>
</glyph>
<glyph name="iota" format="2">
  <advance width="310"/>
  <unicode hex="03B9"/>
  <anchor x="138" y="520" name="topgr"/>
  <outline>
    <contour>
      <point x="278" y="0" type="line"/>
      <point x="230" y="0" type="line" smooth="yes"/>
      <point x="111" y="0"/>
      <point x="57" y="47"/>
      <point x="57" y="153" type="curve" smooth="yes"/>
      <point x="57" y="500" type="line"/>
      <point x="222" y="500" type="line"/>
      <point x="222" y="197.407" type="line" smooth="yes"/>
      <point x="222" y="135.079"/>
      <point x="241" y="120"/>
      <point x="278" y="120" type="curve"/>
    </contour>
  </outline>
</glyph>
<glyph name="xi" format="2">
  <advance width="529"/>
  <unicode hex="03BE"/>
  <outline>
    <contour>
      <point x="62" y="581" type="line"/>
      <point x="62" y="701" type="line"/>
      <point x="435" y="701" type="line"/>
      <point x="435" y="581" type="line"/>
    </contour>
    <contour>
      <point x="321" y="-200" type="line"/>
      <point x="346" y="-166"/>
      <point x="367" y="-143"/>
      <point x="367" y="-97" type="curve" smooth="yes"/>
      <point x="367" y="-50"/>
      <point x="345.057" y="-20"/>
      <point x="255.197" y="-20" type="curve" smooth="yes"/>
      <point x="115.181" y="-20"/>
      <point x="29.5" y="55.2104"/>
      <point x="29.5" y="177.922" type="curve" smooth="yes"/>
      <point x="29.5" y="291.727"/>
      <point x="105.317" y="328"/>
      <point x="237" y="333" type="curve"/>
      <point x="124.328" y="350"/>
      <point x="65.5" y="392.583"/>
      <point x="65.5" y="456.458" type="curve" smooth="yes"/>
      <point x="65.5" y="557.847"/>
      <point x="220.28" y="638.958"/>
      <point x="418" y="642" type="curve"/>
      <point x="434" y="581" type="line"/>
      <point x="288.643" y="560"/>
      <point x="230.5" y="532"/>
      <point x="230.5" y="478" type="curve" smooth="yes"/>
      <point x="230.5" y="419"/>
      <point x="300.673" y="385"/>
      <point x="433" y="385" type="curve"/>
      <point x="433" y="269" type="line"/>
      <point x="249.616" y="269"/>
      <point x="194.5" y="255"/>
      <point x="194.5" y="178" type="curve" smooth="yes"/>
      <point x="194.5" y="129"/>
      <point x="233.561" y="103"/>
      <point x="307.675" y="103" type="curve" smooth="yes"/>
      <point x="440.882" y="103"/>
      <point x="517" y="24"/>
      <point x="517" y="-71" type="curve" smooth="yes"/>
      <point x="517" y="-131"/>
      <point x="489.133" y="-175"/>
      <point x="468.697" y="-200" type="curve"/>
    </contour>
  </outline>
</glyph>
<glyph name="rho" format="2">
  <advance width="629"/>
  <unicode hex="03C1"/>
  <anchor x="322" y="520" name="topgr"/>
  <outline>
    <contour>
      <point x="63" y="-200" type="line"/>
      <point x="228" y="-200" type="line"/>
      <point x="228" y="274" type="line"/>
      <point x="63" y="251" type="line"/>
    </contour>
    <contour>
      <point x="79" y="250" type="line"/>
      <point x="106" y="235"/>
      <point x="150" y="210"/>
      <point x="171" y="192" type="curve"/>
      <point x="163" y="84"/>
      <point x="214" y="-20"/>
      <point x="346" y="-20" type="curve" smooth="yes"/>
      <point x="490" y="-20"/>
      <point x="589" y="104"/>
      <point x="589" y="262" type="curve" smooth="yes"/>
      <point x="589" y="414"/>
      <point x="498" y="520"/>
      <point x="328" y="520" type="curve" smooth="yes"/>
      <point x="154" y="520"/>
      <point x="63" y="410"/>
      <point x="63" y="247" type="curve"/>
    </contour>
    <contour>
      <point x="325" y="103" type="curve" smooth="yes"/>
      <point x="261" y="103"/>
      <point x="228" y="158"/>
      <point x="228" y="249" type="curve" smooth="yes"/>
      <point x="228" y="344"/>
      <point x="264" y="397"/>
      <point x="327" y="397" type="curve" smooth="yes"/>
      <point x="389" y="397"/>
      <point x="424" y="346"/>
      <point x="424" y="253" type="curve" smooth="yes"/>
      <point x="424" y="158"/>
      <point x="388" y="103"/>
    </contour>
  </outline>
</glyph>
<glyph name="sigma" format="2">
  <advance width="648"/>
  <unicode hex="03C3"/>
  <anchor x="417" y="-3" name="ogonek"/>
  <anchor x="308" y="-20" name="bottom"/>
  <anchor x="308" y="520" name="topgr"/>
  <outline>
    <contour>
      <point x="39" y="244.815" type="curve" smooth="yes"/>
      <point x="39" y="84.963"/>
      <point x="147" y="-20"/>
      <point x="308" y="-20" type="curve" smooth="yes"/>
      <point x="473" y="-20"/>
      <point x="577" y="76.2963"/>
      <point x="577" y="244.815" type="curve" smooth="yes"/>
      <point x="577" y="414.296"/>
      <point x="469" y="500"/>
      <point x="308" y="500" type="curve" smooth="yes"/>
      <point x="155" y="500"/>
      <point x="39" y="412.37"/>
    </contour>
    <contour>
      <point x="305" y="100" type="curve" smooth="yes"/>
      <point x="239" y="100"/>
      <point x="204" y="149.693"/>
      <point x="204" y="244.3" type="curve" smooth="yes"/>
      <point x="204" y="335.085"/>
      <point x="238" y="380"/>
      <point x="306" y="380" type="curve" smooth="yes"/>
      <point x="376" y="380"/>
      <point x="412" y="333.174"/>
      <point x="412" y="242.389" type="curve" smooth="yes"/>
      <point x="412" y="150.648"/>
      <point x="374" y="100"/>
    </contour>
    <contour>
      <point x="375" y="376" type="line"/>
      <point x="631" y="376" type="line"/>
      <point x="631" y="500" type="line"/>
      <point x="306" y="500" type="line"/>
    </contour>
  </outline>
</glyph>
<glyph name="tau" format="2">
  <advance width="421"/>
  <unicode hex="03C4"/>
  <anchor x="210" y="520" name="topgr"/>
  <outline>
    <contour>
      <point x="24" y="376" type="line"/>
      <point x="390" y="376" type="line"/>
      <point x="390" y="500" type="line"/>
      <point x="24" y="500" type="line"/>
    </contour>
    <contour>
      <point x="349" y="120" type="line"/>
      <point x="312" y="120"/>
      <point x="293" y="135.079"/>
      <point x="293" y="197.407" type="curve" smooth="yes"/>
      <point x="293" y="500" type="line"/>
      <point x="128" y="500" type="line"/>
      <point x="128" y="153" type="line" smooth="yes"/>
      <point x="128" y="47"/>
      <point x="182" y="0"/>
      <point x="301" y="0" type="curve" smooth="yes"/>
      <point x="349" y="0" type="line"/>
    </contour>
  </outline>
</glyph>
<glyph name="Dzhecyr" format="2">
  <advance width="683"/>
  <unicode hex="040F"/>
  <outline>
    <contour>
      <point x="67" y="0" type="line"/>
      <point x="275" y="0" type="line"/>
      <point x="287" y="-38"/>
      <point x="288" y="-119"/>
      <point x="277" y="-158" type="curve"/>
      <point x="412" y="-158" type="line"/>
      <point x="425" y="-105"/>
      <point x="424" y="-52"/>
      <point x="408" y="0" type="curve"/>
      <point x="616" y="0" type="line"/>
      <point x="616" y="700" type="line"/>
      <point x="450" y="700" type="line"/>
      <point x="450" y="131" type="line"/>
      <point x="233" y="131" type="line"/>
      <point x="233" y="700" type="line"/>
      <point x="67" y="700" type="line"/>
    </contour>
  </outline>
</glyph>
<glyph name="Kacyr" format="2">
  <advance width="640"/>
  <unicode hex="041A"/>
  <anchor x="320" y="719" name="top"/>
  <anchor x="320" y="-20" name="bottom"/>
  <outline>
    <contour>
      <point x="58" y="0" type="line"/>
      <point x="223" y="0" type="line"/>
      <point x="223" y="700" type="line"/>
      <point x="58" y="700" type="line"/>
    </contour>
    <contour>
      <point x="184" y="310" type="line"/>
      <point x="388" y="310" type="line" smooth="yes"/>
      <point x="482" y="310"/>
      <point x="549" y="356"/>
      <point x="563" y="470" type="curve"/>
      <point x="585" y="700" type="line"/>
      <point x="420" y="700" type="line"/>
      <point x="406" y="551" type="line" smooth="yes"/>
      <point x="398" y="466"/>
      <point x="378" y="440"/>
      <point x="320" y="440" type="curve" smooth="yes"/>
      <point x="184" y="440" type="line"/>
    </contour>
    <contour>
      <point x="455" y="0" type="line"/>
      <point x="629" y="0" type="line"/>
      <point x="503" y="346" type="line"/>
      <point x="335" y="329" type="line"/>
    </contour>
  </outline>
</glyph>
<glyph name="Pecyr" format="2">
  <advance width="700"/>
  <unicode hex="041F"/>
  <anchor x="350" y="-20" name="bottom"/>
  <anchor x="350" y="719" name="top"/>
  <outline>
    <contour>
      <point x="67" y="0" type="line"/>
      <point x="233" y="0" type="line"/>
      <point x="233" y="569" type="line"/>
      <point x="467" y="569" type="line"/>
      <point x="467" y="0" type="line"/>
      <point x="633" y="0" type="line"/>
      <point x="633" y="700" type="line"/>
      <point x="67" y="700" type="line"/>
    </contour>
  </outline>
</glyph>
<glyph name="Ucyr" format="2">
  <advance width="612"/>
  <unicode hex="0423"/>
  <anchor x="306" y="719" name="top"/>
  <anchor x="317" y="-20" name="bottom"/>
  <outline>
    <contour>
      <point x="81" y="-86" type="line"/>
      <point x="230" y="-86"/>
      <point x="315" y="-54"/>
      <point x="349" y="36" type="curve" smooth="yes"/>
      <point x="604" y="700" type="line"/>
      <point x="426" y="700" type="line"/>
      <point x="236" y="150" type="line" smooth="yes"/>
      <point x="212.037" y="80.6331"/>
      <point x="167" y="44"/>
      <point x="81" y="44" type="curve"/>
    </contour>
    <contour>
      <point x="213" y="138" type="line"/>
      <point x="266" y="138" type="line"/>
      <point x="366" y="142" type="line"/>
      <point x="184" y="700" type="line"/>
      <point x="8" y="700" type="line"/>
    </contour>
  </outline>
</glyph>
<glyph name="Shchacyr" format="2">
  <advance width="1060"/>
  <unicode hex="0429"/>
  <outline>
    <contour>
      <point x="67" y="0" type="line"/>
      <point x="67" y="700" type="line"/>
      <point x="233" y="700" type="line"/>
      <point x="233" y="130" type="line"/>
      <point x="403" y="130" type="line"/>
      <point x="403" y="700" type="line"/>
      <point x="569" y="700" type="line"/>
      <point x="569" y="130" type="line"/>
      <point x="739" y="130" type="line"/>
      <point x="739" y="700" type="line"/>
      <point x="905" y="700" type="line"/>
      <point x="905" y="130" type="line"/>
      <point x="1005" y="130"/>
      <point x="1039" y="98"/>
      <point x="1039" y="-140" type="curve"/>
      <point x="906" y="-140" type="line"/>
      <point x="906" y="-42"/>
      <point x="914" y="0"/>
      <point x="843" y="0" type="curve" smooth="yes"/>
    </contour>
  </outline>
</glyph>
<glyph name="kacyr" format="2">
  <advance width="588"/>
  <unicode hex="043A"/>
  <anchor x="288" y="520" name="top"/>
  <anchor x="288" y="-20" name="bottom"/>
  <outline>
    <contour>
      <point x="64" y="0" type="line"/>
      <point x="229" y="0" type="line"/>
      <point x="229" y="500" type="line"/>
      <point x="64" y="500" type="line"/>
    </contour>
    <contour>
      <point x="215" y="205" type="line"/>
      <point x="381" y="205" type="line" smooth="yes"/>
      <point x="461" y="205"/>
      <point x="515" y="252"/>
      <point x="526" y="334" type="curve"/>
      <point x="543" y="500" type="line"/>
      <point x="390" y="500" type="line"/>
      <point x="379" y="392.775" type="line" smooth="yes"/>
      <point x="373" y="342.197"/>
      <point x="359" y="325"/>
      <point x="303" y="325" type="curve" smooth="yes"/>
      <point x="215" y="325" type="line"/>
    </contour>
    <contour>
      <point x="411" y="0" type="line"/>
      <point x="581" y="0" type="line"/>
      <point x="473" y="247" type="line"/>
      <point x="309" y="235" type="line"/>
    </contour>
  </outline>
</glyph>
<glyph name="elcyr" format="2">
  <advance width="600"/>
  <unicode hex="043B"/>
  <outline>
    <contour>
      <point x="30" y="106" type="line"/>
      <point x="41" y="104"/>
      <point x="49" y="103"/>
      <point x="55" y="103" type="curve" smooth="yes"/>
      <point x="99" y="103"/>
      <point x="107" y="180"/>
      <point x="107" y="500" type="curve"/>
      <point x="546" y="500" type="line"/>
      <point x="546" y="0" type="line"/>
      <point x="381" y="0" type="line"/>
      <point x="381" y="378" type="line"/>
      <point x="271" y="378" type="line"/>
      <point x="271" y="56"/>
      <point x="213" y="-20"/>
      <point x="90" y="-20" type="curve" smooth="yes"/>
      <point x="46" y="-20"/>
      <point x="26" y="-16"/>
      <point x="5" y="-9" type="curve"/>
    </contour>
  </outline>
</glyph>
<glyph name="tsecyr" format="2">
  <advance width="686"/>
  <unicode hex="0446"/>
  <outline>
    <contour>
      <point x="53" y="0" type="line"/>
      <point x="490" y="0" type="line" smooth="yes"/>
      <point x="557" y="0"/>
      <point x="544" y="-72"/>
      <point x="544" y="-140" type="curve"/>
      <point x="661" y="-140" type="line"/>
      <point x="661" y="62"/>
      <point x="640.174" y="120"/>
      <point x="541" y="120" type="curve"/>
      <point x="541" y="500" type="line"/>
      <point x="376" y="500" type="line"/>
      <point x="376" y="120" type="line"/>
      <point x="218" y="120" type="line"/>
      <point x="218" y="500" type="line"/>
      <point x="53" y="500" type="line"/>
    </contour>
  </outline>
</glyph>
<glyph name="djecyr" format="2">
  <advance width="665"/>
  <unicode hex="0452"/>
  <outline>
    <contour>
      <point x="89" y="0" type="line"/>
      <point x="254" y="0" type="line"/>
      <point x="254" y="750" type="line"/>
      <point x="89" y="750" type="line"/>
    </contour>
    <contour>
      <point x="254" y="197" type="line"/>
      <point x="254" y="292"/>
      <point x="290" y="376"/>
      <point x="367" y="376" type="curve" smooth="yes"/>
      <point x="413" y="376"/>
      <point x="441" y="347"/>
      <point x="441" y="252" type="curve" smooth="yes"/>
      <point x="441" y="0" type="line"/>
      <point x="606" y="0" type="line"/>
      <point x="606" y="284" type="line" smooth="yes"/>
      <point x="606" y="428"/>
      <point x="545" y="500"/>
      <point x="430" y="500" type="curve" smooth="yes"/>
      <point x="321" y="500"/>
      <point x="257" y="408"/>
      <point x="240" y="330" type="curve"/>
      <point x="242" y="258" type="line"/>
    </contour>
    <contour>
      <point x="19" y="590" type="line"/>
      <point x="429" y="590" type="line"/>
      <point x="429" y="626" type="line"/>
      <point x="19" y="626" type="line"/>
    </contour>
    <contour>
      <point x="309" y="-198" type="line"/>
      <point x="356" y="-212"/>
      <point x="380" y="-221"/>
      <point x="448" y="-221" type="curve" smooth="yes"/>
      <point x="543" y="-221"/>
      <point x="606" y="-174"/>
      <point x="606" y="-68" type="curve" smooth="yes"/>
      <point x="606" y="260" type="line"/>
      <point x="441" y="260" type="line"/>
      <point x="441" y="-8" type="line" smooth="yes"/>
      <point x="441" y="-74"/>
      <point x="435" y="-96"/>
      <point x="396" y="-96" type="curve" smooth="yes"/>
      <point x="376" y="-96"/>
      <point x="360" y="-93"/>
      <point x="341" y="-84" type="curve"/>
    </contour>
  </outline>
</glyph>
<glyph name="njecyr" format="2">
  <advance width="830"/>
  <unicode hex="045A"/>
  <outline>
    <contour>
      <point x="53" y="0" type="line"/>
      <point x="218" y="0" type="line"/>
      <point x="218" y="199" type="line"/>
      <point x="359" y="199" type="line"/>
      <point x="359" y="0" type="line"/>
      <point x="524" y="0" type="line"/>
      <point x="524" y="500" type="line"/>
      <point x="359" y="500" type="line"/>
      <point x="359" y="321" type="line"/>
      <point x="218" y="321" type="line"/>
      <point x="218" y="500" type="line"/>
      <point x="53" y="500" type="line"/>
    </contour>
    <contour>
      <point x="363" y="0" type="line"/>
      <point x="607" y="0" type="line" smooth="yes"/>
      <point x="727" y="0"/>
      <point x="790" y="54.7042"/>
      <point x="790" y="162.048" type="curve" smooth="yes"/>
      <point x="790" y="268.36"/>
      <point x="728" y="321"/>
      <point x="606" y="321" type="curve" smooth="yes"/>
      <point x="449" y="321" type="line"/>
      <point x="449" y="199" type="line"/>
      <point x="570" y="199" type="line" smooth="yes"/>
      <point x="605" y="199"/>
      <point x="625" y="184.06"/>
      <point x="625" y="161.075" type="curve" smooth="yes"/>
      <point x="625" y="136.94"/>
      <point x="604" y="122"/>
      <point x="567" y="122" type="curve" smooth="yes"/>
      <point x="518" y="122" type="line"/>
      <point x="518" y="500" type="line"/>
      <point x="363" y="500" type="line"/>
    </contour>
  </outline>
</glyph>
<glyph name="daggerdbl" format="2">
  <advance width="722"/>
  <unicode hex="2021"/>
  <outline>
    <contour>
      <point x="50" y="-29" type="line"/>
      <point x="278" y="-15" type="line"/>
      <point x="269" y="-222" type="line"/>
      <point x="435" y="-222" type="line"/>
      <point x="427" y="-15" type="line"/>
      <point x="650" y="-29" type="line"/>
      <point x="650" y="106" type="line"/>
      <point x="425" y="92" type="line"/>
      <point x="400" y="237" type="line"/>
      <point x="425" y="382" type="line"/>
      <point x="650" y="368" type="line"/>
      <point x="650" y="503" type="line"/>
      <point x="427" y="489" type="line"/>
      <point x="435" y="696" type="line"/>
      <point x="269" y="696" type="line"/>
      <point x="278" y="489" type="line"/>
      <point x="50" y="503" type="line"/>
      <point x="50" y="368" type="line"/>
      <point x="280" y="382" type="line"/>
      <point x="305" y="237" type="line"/>
      <point x="280" y="92" type="line"/>
      <point x="50" y="106" type="line"/>
    </contour>
  </outline>
</glyph>
<glyph name="four.superior" format="2">
  <advance width="486"/>
  <unicode hex="2074"/>
  <outline>
    <contour>
      <point x="17" y="448" type="line"/>
      <point x="265" y="448" type="line"/>
      <point x="265" y="344" type="line"/>
      <point x="380" y="344" type="line"/>
      <point x="380" y="448" type="line"/>
      <point x="468" y="448" type="line"/>
      <point x="468" y="538" type="line"/>
      <point x="380" y="538" type="line"/>
      <point x="380" y="830" type="line"/>
      <point x="238" y="830" type="line"/>
      <point x="17" y="490" type="line"/>
    </contour>
    <contour>
      <point x="156" y="538" type="line"/>
      <point x="265" y="706" type="line"/>
      <point x="265" y="538" type="line"/>
    </contour>
  </outline>
</glyph>
<glyph name="lira" format="2">
  <advance width="666"/>
  <unicode hex="20A4"/>
  <outline>
    <contour>
      <point x="42" y="339" type="line"/>
      <point x="500" y="339" type="line"/>
      <point x="500" y="419" type="line"/>
      <point x="42" y="419" type="line"/>
    </contour>
    <contour>
      <point x="42" y="219" type="line"/>
      <point x="500" y="219" type="line"/>
      <point x="500" y="299" type="line"/>
      <point x="42" y="299" type="line"/>
    </contour>
    <contour>
      <point x="38" y="0" type="line"/>
      <point x="643" y="0" type="line"/>
      <point x="643" y="130" type="line"/>
      <point x="178" y="130" type="line"/>
      <point x="269.574" y="152"/>
      <point x="285.5" y="208"/>
      <point x="285.5" y="268" type="curve" smooth="yes"/>
      <point x="285.5" y="452" type="line" smooth="yes"/>
      <point x="285.5" y="518"/>
      <point x="299.526" y="590"/>
      <point x="390.697" y="590" type="curve" smooth="yes"/>
      <point x="442.795" y="590"/>
      <point x="487.88" y="566"/>
      <point x="552" y="504" type="curve"/>
      <point x="647" y="599" type="line"/>
      <point x="582.062" y="679"/>
      <point x="498.141" y="720"/>
      <point x="389.245" y="720" type="curve" smooth="yes"/>
      <point x="229.397" y="720"/>
      <point x="120.5" y="631"/>
      <point x="120.5" y="486" type="curve" smooth="yes"/>
      <point x="120.5" y="252" type="line" smooth="yes"/>
      <point x="120.5" y="185"/>
      <point x="84.2805" y="118"/>
      <point x="38" y="90" type="curve"/>
    </contour>
  </outline>
</glyph>
<glyph name="austral" format="2">
  <advance width="718"/>
  <unicode hex="20B3"/>
  <outline>
    <contour>
      <point x="13" y="129" type="line"/>
      <point x="705" y="129" type="line"/>
      <point x="705" y="200" type="line"/>
      <point x="13" y="200" type="line"/>
    </contour>
    <contour>
      <point x="13" y="268" type="line"/>
      <point x="705" y="268" type="line"/>
      <point x="705" y="339" type="line"/>
      <point x="13" y="339" type="line"/>
    </contour>
    <contour>
      <point x="403.5" y="700" type="line"/>
      <point x="265.5" y="700" type="line"/>
      <point x="38.5" y="0" type="line"/>
      <point x="212.5" y="0" type="line"/>
    </contour>
    <contour>
      <point x="452.5" y="700" type="line"/>
      <point x="314.5" y="700" type="line"/>
      <point x="505.5" y="0" type="line"/>
      <point x="679.5" y="0" type="line"/>
    </contour>
  </outline>
</glyph>
<glyph name="turkishlira" format="2">
  <advance width="640"/>
  <unicode hex="20BA"/>
  <outline>
    <contour>
      <point x="21" y="384" type="line"/>
      <point x="443" y="511" type="line"/>
      <point x="443" y="574" type="line"/>
      <point x="21" y="446" type="line"/>
    </contour>
    <contour>
      <point x="21" y="267" type="line"/>
      <point x="443" y="394" type="line"/>
      <point x="443" y="457" type="line"/>
      <point x="21" y="329" type="line"/>
    </contour>
    <contour>
      <point x="124" y="0" type="line"/>
      <point x="303" y="0" type="line" smooth="yes"/>
      <point x="521" y="0"/>
      <point x="606" y="78"/>
      <point x="606" y="283" type="curve"/>
      <point x="463" y="250" type="line"/>
      <point x="463" y="190"/>
      <point x="442" y="130"/>
      <point x="330" y="130" type="curve" smooth="yes"/>
      <point x="290" y="130" type="line"/>
      <point x="290" y="700" type="line"/>
      <point x="124" y="700" type="line"/>
    </contour>
  </outline>
</glyph>
<glyph name="Ohm" format="2">
  <advance width="800"/>
  <unicode hex="2126"/>
  <anchor x="-20" y="500" name="topgr"/>
  <outline>
    <contour>
      <point x="56" y="0" type="line"/>
      <point x="368" y="0" type="line"/>
      <point x="368" y="130" type="line"/>
      <point x="257.366" y="186"/>
      <point x="206" y="267.903"/>
      <point x="206" y="382.381" type="curve" smooth="yes"/>
      <point x="206" y="499.651"/>
      <point x="265.388" y="589"/>
      <point x="395.051" y="589" type="curve" smooth="yes"/>
      <point x="524.714" y="589"/>
      <point x="594" y="498.721"/>
      <point x="594" y="381.45" type="curve" smooth="yes"/>
      <point x="594" y="266.972"/>
      <point x="533.739" y="186"/>
      <point x="431" y="130" type="curve"/>
      <point x="431" y="0" type="line"/>
      <point x="742.5" y="0" type="line"/>
      <point x="742.5" y="131" type="line"/>
      <point x="595" y="131" type="line"/>
      <point x="704" y="178"/>
      <point x="762" y="284"/>
      <point x="762" y="401" type="curve" smooth="yes"/>
      <point x="762" y="578"/>
      <point x="615" y="720"/>
      <point x="400" y="720" type="curve" smooth="yes"/>
      <point x="180" y="720"/>
      <point x="38" y="572"/>
      <point x="38" y="396" type="curve" smooth="yes"/>
      <point x="38" y="278"/>
      <point x="95" y="177"/>
      <point x="204" y="131" type="curve"/>
      <point x="56" y="131" type="line"/>
    </contour>
  </outline>
</glyph>
<glyph name="radical" format="2">
  <advance width="660"/>
  <unicode hex="221A"/>
  <outline>
    <contour>
      <point x="237" y="-122.003" type="line"/>
      <point x="401" y="-122.003" type="line"/>
      <point x="707.446" y="820" type="line"/>
      <point x="534.446" y="820" type="line"/>
      <point x="317" y="51.9966" type="line"/>
      <point x="246" y="297.997" type="line"/>
      <point x="1" y="297.997" type="line"/>
      <point x="1" y="177.997" type="line"/>
      <point x="116" y="177.997" type="line"/>
    </contour>
  </outline>
</glyph>
<glyph name="C.ss09" format="2">
  <advance width="773"/>
  <anchor x="407" y="-19" name="bottom"/>
  <anchor x="387" y="719" name="top"/>
  <outline>
    <contour>
      <point x="569" y="261" type="line"/>
      <point x="557" y="164"/>
      <point x="485" y="111"/>
      <point x="395" y="111" type="curve" smooth="yes"/>
      <point x="276" y="111"/>
      <point x="205" y="203"/>
      <point x="205" y="353" type="curve" smooth="yes"/>
      <point x="205" y="500"/>
      <point x="273" y="589"/>
      <point x="399" y="589" type="curve" smooth="yes"/>
      <point x="483" y="589"/>
      <point x="533" y="550"/>
      <point x="559" y="485" type="curve"/>
      <point x="725" y="485" type="line"/>
      <point x="682" y="623"/>
      <point x="568" y="720"/>
      <point x="399" y="720" type="curve" smooth="yes"/>
      <point x="186" y="720"/>
      <point x="38" y="565"/>
      <point x="38" y="357" type="curve" smooth="yes"/>
      <point x="38" y="146"/>
      <point x="190" y="-20"/>
      <point x="402" y="-20" type="curve" smooth="yes"/>
      <point x="585" y="-20"/>
      <point x="703" y="103"/>
      <point x="735" y="261" type="curve"/>
    </contour>
  </outline>
</glyph>
<glyph name="C.ss10" format="2">
  <advance width="735"/>
  <anchor x="407" y="-19" name="bottom"/>
  <anchor x="387" y="719" name="top"/>
  <outline>
    <contour>
      <point x="652" y="276" type="line"/>
      <point x="577" y="156"/>
      <point x="499" y="111"/>
      <point x="410" y="111" type="curve" smooth="yes"/>
      <point x="280.4" y="111"/>
      <point x="204" y="209"/>
      <point x="204" y="356" type="curve" smooth="yes"/>
      <point x="204" y="495.8"/>
      <point x="277.2" y="589"/>
      <point x="402" y="589" type="curve" smooth="yes"/>
      <point x="492" y="589"/>
      <point x="568" y="544"/>
      <point x="643" y="424" type="curve"/>
      <point x="688" y="583" type="line"/>
      <point x="624" y="666"/>
      <point x="522" y="720"/>
      <point x="395" y="720" type="curve" smooth="yes"/>
      <point x="180.8" y="720"/>
      <point x="38" y="574.8"/>
      <point x="38" y="357" type="curve" smooth="yes"/>
      <point x="38" y="130.8"/>
      <point x="184.4" y="-20"/>
      <point x="404" y="-20" type="curve" smooth="yes"/>
      <point x="529" y="-20"/>
      <point x="633" y="34"/>
      <point x="697" y="117" type="curve"/>
    </contour>
  </outline>
</glyph>
<glyph name="C.ss12" format="2">
  <advance width="669"/>
  <anchor x="377" y="-19" name="bottom"/>
  <anchor x="357" y="719" name="top"/>
  <outline>
    <contour>
      <point x="618.708" y="198.665" type="line"/>
      <point x="539.511" y="140.747"/>
      <point x="445.754" y="109.53"/>
      <point x="385" y="109.53" type="curve" smooth="yes"/>
      <point x="251" y="109.53"/>
      <point x="203" y="197"/>
      <point x="203" y="349" type="curve" smooth="yes"/>
      <point x="203" y="504"/>
      <point x="253" y="590"/>
      <point x="387" y="590" type="curve" smooth="yes"/>
      <point x="447.754" y="590"/>
      <point x="541.511" y="558.783"/>
      <point x="620.708" y="500.865" type="curve"/>
      <point x="630.472" y="611.523" type="line"/>
      <point x="578.397" y="677.701"/>
      <point x="473.725" y="719.901"/>
      <point x="375" y="719.901" type="curve" smooth="yes"/>
      <point x="168" y="719.901"/>
      <point x="38" y="569"/>
      <point x="38" y="348" type="curve" smooth="yes"/>
      <point x="38" y="122.577"/>
      <point x="169.79" y="-20.371"/>
      <point x="373" y="-20.371" type="curve" smooth="yes"/>
      <point x="471.725" y="-20.371"/>
      <point x="576.397" y="21.8289"/>
      <point x="628.472" y="88.0069" type="curve"/>
    </contour>
  </outline>
</glyph>
<glyph name="Ccedilla.ss09" format="2">
  <advance width="773"/>
  <anchor x="387" y="719" name="top"/>
  <anchor x="387" y="-217" name="bottom"/>
  <outline>
    <contour>
      <point x="569" y="261" type="line"/>
      <point x="557" y="164"/>
      <point x="485" y="111"/>
      <point x="395" y="111" type="curve" smooth="yes"/>
      <point x="276" y="111"/>
      <point x="205" y="203"/>
      <point x="205" y="353" type="curve" smooth="yes"/>
      <point x="205" y="500"/>
      <point x="273" y="589"/>
      <point x="399" y="589" type="curve" smooth="yes"/>
      <point x="483" y="589"/>
      <point x="533" y="550"/>
      <point x="559" y="485" type="curve"/>
      <point x="725" y="485" type="line"/>
      <point x="682" y="623"/>
      <point x="568" y="720"/>
      <point x="399" y="720" type="curve" smooth="yes"/>
      <point x="186" y="720"/>
      <point x="38" y="565"/>
      <point x="38" y="357" type="curve" smooth="yes"/>
      <point x="38" y="146"/>
      <point x="190" y="-20"/>
      <point x="402" y="-20" type="curve" smooth="yes"/>
      <point x="585" y="-20"/>
      <point x="703" y="103"/>
      <point x="735" y="261" type="curve"/>
    </contour>
    <contour>
      <point x="260" y="-204" type="line"/>
      <point x="282" y="-210"/>
      <point x="315" y="-217"/>
      <point x="362" y="-217" type="curve" smooth="yes"/>
      <point x="459" y="-217"/>
      <point x="511" y="-191"/>
      <point x="511" y="-132" type="curve" smooth="yes"/>
      <point x="511" y="-86"/>
      <point x="480" y="-63"/>
      <point x="410" y="-63" type="curve"/>
      <point x="457.224" y="20" type="line"/>
      <point x="364.224" y="20" type="line"/>
      <point x="299" y="-103" type="line"/>
      <point x="314" y="-101"/>
      <point x="332" y="-99"/>
      <point x="346" y="-99" type="curve" smooth="yes"/>
      <point x="379" y="-99"/>
      <point x="398" y="-110"/>
      <point x="398" y="-133" type="curve" smooth="yes"/>
      <point x="398" y="-154"/>
      <point x="382" y="-167"/>
      <point x="353" y="-167" type="curve" smooth="yes"/>
      <point x="335" y="-167"/>
      <point x="300" y="-162"/>
      <point x="280" y="-156" type="curve"/>
    </contour>
  </outline>
</glyph>
<glyph name="G.ss15" format="2">
  <advance width="767"/>
  <anchor x="393" y="-19" name="bottom"/>
  <anchor x="393" y="719" name="top"/>
  <outline>
    <contour>
      <point x="382" y="264" type="line"/>
      <point x="572" y="264" type="line"/>
      <point x="572" y="309" type="line"/>
      <point x="572" y="175"/>
      <point x="521" y="111"/>
      <point x="407" y="111" type="curve" smooth="yes"/>
      <point x="276" y="111"/>
      <point x="203" y="195"/>
      <point x="203" y="348" type="curve" smooth="yes"/>
      <point x="203" y="508"/>
      <point x="263" y="590"/>
      <point x="397" y="590" type="curve" smooth="yes"/>
      <point x="485" y="590"/>
      <point x="582" y="555"/>
      <point x="664" y="473" type="curve"/>
      <point x="676" y="587" type="line"/>
      <point x="599" y="677"/>
      <point x="502" y="720"/>
      <point x="385" y="720" type="curve" smooth="yes"/>
      <point x="170" y="720"/>
      <point x="38" y="578"/>
      <point x="38" y="348" type="curve" smooth="yes"/>
      <point x="38" y="118"/>
      <point x="183" y="-19"/>
      <point x="393" y="-19" type="curve" smooth="yes"/>
      <point x="603" y="-19"/>
      <point x="729" y="119"/>
      <point x="729" y="321" type="curve" smooth="yes"/>
      <point x="729" y="394" type="line"/>
      <point x="382" y="394" type="line"/>
    </contour>
  </outline>
</glyph>
<glyph name="Germandbls.ss09" format="2">
  <advance width="723"/>
  <outline>
    <contour>
      <point x="59" y="0" type="line"/>
      <point x="225" y="0" type="line"/>
      <point x="225" y="497" type="line" smooth="yes"/>
      <point x="225" y="539"/>
      <point x="245" y="589"/>
      <point x="317" y="589" type="curve" smooth="yes"/>
      <point x="349" y="589"/>
      <point x="388" y="580"/>
      <point x="397" y="574" type="curve"/>
      <point x="340" y="519.129" type="line" smooth="yes"/>
      <point x="303.869" y="484.348"/>
      <point x="275" y="443.308"/>
      <point x="275" y="392.428" type="curve" smooth="yes"/>
      <point x="275" y="241.784"/>
      <point x="519" y="249.765"/>
      <point x="519" y="150" type="curve" smooth="yes"/>
      <point x="519" y="129.474"/>
      <point x="509.176" y="111"/>
      <point x="464.969" y="111" type="curve" smooth="yes"/>
      <point x="437.463" y="111"/>
      <point x="407.991" y="119.211"/>
      <point x="407" y="150" type="curve"/>
      <point x="245" y="150" type="line"/>
      <point x="261" y="31.3018"/>
      <point x="329" y="-20"/>
      <point x="469" y="-20" type="curve" smooth="yes"/>
      <point x="605" y="-20"/>
      <point x="684" y="53"/>
      <point x="684" y="174" type="curve" smooth="yes"/>
      <point x="684" y="336"/>
      <point x="440" y="326"/>
      <point x="440" y="422" type="curve" smooth="yes"/>
      <point x="440" y="451"/>
      <point x="464.166" y="481.84"/>
      <point x="496" y="515" type="curve" smooth="yes"/>
      <point x="616" y="640" type="line"/>
      <point x="549" y="695"/>
      <point x="453.042" y="720"/>
      <point x="348.917" y="720" type="curve" smooth="yes"/>
      <point x="164.146" y="720"/>
      <point x="59" y="624"/>
      <point x="59" y="489" type="curve" smooth="yes"/>
    </contour>
  </outline>
</glyph>
<glyph name="Germandbls.ss12" format="2">
  <advance width="693"/>
  <outline>
    <contour>
      <point x="59" y="0" type="line"/>
      <point x="225" y="0" type="line"/>
      <point x="225" y="441" type="line" smooth="yes"/>
      <point x="225" y="540"/>
      <point x="270" y="590"/>
      <point x="354" y="590" type="curve" smooth="yes"/>
      <point x="378" y="590"/>
      <point x="399" y="586"/>
      <point x="421" y="571" type="curve"/>
      <point x="356" y="522" type="line" smooth="yes"/>
      <point x="302" y="481"/>
      <point x="275" y="447"/>
      <point x="275" y="393" type="curve" smooth="yes"/>
      <point x="275" y="316.203"/>
      <point x="330.096" y="283.12"/>
      <point x="384.245" y="255.206" type="curve" smooth="yes"/>
      <point x="436.564" y="228.235"/>
      <point x="488" y="206.089"/>
      <point x="488" y="154" type="curve" smooth="yes"/>
      <point x="488" y="129"/>
      <point x="476" y="113"/>
      <point x="437" y="113" type="curve" smooth="yes"/>
      <point x="391" y="113"/>
      <point x="347" y="135"/>
      <point x="280" y="207" type="curve"/>
      <point x="268" y="92" type="line"/>
      <point x="319" y="17"/>
      <point x="383" y="-20"/>
      <point x="478" y="-20" type="curve" smooth="yes"/>
      <point x="598" y="-20"/>
      <point x="654" y="59"/>
      <point x="654" y="144" type="curve" smooth="yes"/>
      <point x="654" y="239.423"/>
      <point x="580.354" y="284.155"/>
      <point x="516.229" y="321.399" type="curve" smooth="yes"/>
      <point x="466.784" y="350.116"/>
      <point x="423" y="374.382"/>
      <point x="423" y="414" type="curve" smooth="yes"/>
      <point x="423" y="455"/>
      <point x="470" y="494"/>
      <point x="491" y="512" type="curve" smooth="yes"/>
      <point x="629" y="635" type="line"/>
      <point x="570" y="676"/>
      <point x="470" y="720"/>
      <point x="347" y="720" type="curve" smooth="yes"/>
      <point x="155" y="720"/>
      <point x="59" y="612"/>
      <point x="59" y="489" type="curve" smooth="yes"/>
    </contour>
  </outline>
</glyph>
<glyph name="J.ss12" format="2">
  <advance width="500"/>
  <anchor x="359" y="719" name="top"/>
  <anchor x="210" y="-20" name="bottom"/>
  <outline>
    <contour>
      <point x="19" y="23" type="line"/>
      <point x="65.9438" y="-3"/>
      <point x="120.878" y="-20"/>
      <point x="209.772" y="-20" type="curve" smooth="yes"/>
      <point x="362.589" y="-20"/>
      <point x="436.5" y="62"/>
      <point x="436.5" y="232" type="curve" smooth="yes"/>
      <point x="436.5" y="700" type="line"/>
      <point x="271.5" y="700" type="line"/>
      <point x="271.5" y="239" type="line" smooth="yes"/>
      <point x="271.5" y="143"/>
      <point x="250.456" y="110"/>
      <point x="186.321" y="110" type="curve" smooth="yes"/>
      <point x="132.208" y="110"/>
      <point x="89.1176" y="119"/>
      <point x="33" y="140" type="curve"/>
    </contour>
  </outline>
</glyph>
<glyph name="Ljecyr.ss08" format="2">
  <advance width="920"/>
  <outline>
    <contour>
      <point x="494" y="0" type="line"/>
      <point x="630.823" y="0" type="line" smooth="yes"/>
      <point x="797.607" y="0"/>
      <point x="880.5" y="74.6341"/>
      <point x="880.5" y="222.805" type="curve" smooth="yes"/>
      <point x="880.5" y="372.073"/>
      <point x="795.591" y="450"/>
      <point x="630.768" y="450" type="curve" smooth="yes"/>
      <point x="414" y="450" type="line"/>
      <point x="429" y="320" type="line"/>
      <point x="572.25" y="320" type="line" smooth="yes"/>
      <point x="679.437" y="320"/>
      <point x="715.5" y="297.2"/>
      <point x="715.5" y="231.333" type="curve" smooth="yes"/>
      <point x="715.5" y="160.4"/>
      <point x="673.383" y="130"/>
      <point x="572.101" y="130" type="curve" smooth="yes"/>
      <point x="536" y="130" type="line"/>
      <point x="493" y="3" type="line"/>
    </contour>
    <contour>
      <point x="372" y="700" type="line"/>
      <point x="234" y="700" type="line"/>
      <point x="7" y="0" type="line"/>
      <point x="181" y="0" type="line"/>
    </contour>
    <contour>
      <point x="421" y="700" type="line"/>
      <point x="283" y="700" type="line"/>
      <point x="474" y="0" type="line"/>
      <point x="648" y="0" type="line"/>
    </contour>
  </outline>
</glyph>
<glyph name="Schwa.ss12" format="2">
  <advance width="779"/>
  <anchor x="390" y="719" name="top"/>
  <anchor x="390" y="-20" name="bottom"/>
  <outline>
    <contour>
      <point x="42" y="412" type="line"/>
      <point x="40" y="397"/>
      <point x="38" y="374"/>
      <point x="38" y="360" type="curve" smooth="yes"/>
      <point x="38" y="131"/>
      <point x="178" y="-20"/>
      <point x="390" y="-20" type="curve" smooth="yes"/>
      <point x="593" y="-20"/>
      <point x="741" y="111"/>
      <point x="741" y="350" type="curve" smooth="yes"/>
      <point x="741" y="573"/>
      <point x="611" y="720"/>
      <point x="386" y="720" type="curve" smooth="yes"/>
      <point x="263" y="720"/>
      <point x="180" y="677"/>
      <point x="98" y="587" type="curve"/>
      <point x="110" y="473" type="line"/>
      <point x="197" y="554"/>
      <point x="270" y="589"/>
      <point x="370" y="589" type="curve" smooth="yes"/>
      <point x="504" y="589"/>
      <point x="574" y="509"/>
      <point x="574" y="354" type="curve" smooth="yes"/>
      <point x="574" y="198"/>
      <point x="509" y="111"/>
      <point x="392" y="111" type="curve" smooth="yes"/>
      <point x="294" y="111"/>
      <point x="221" y="168"/>
      <point x="210" y="288" type="curve"/>
      <point x="594" y="288" type="line"/>
      <point x="595" y="412" type="line"/>
    </contour>
  </outline>
</glyph>
<glyph name="Yacyr.ss08" format="2">
  <advance width="645"/>
  <anchor x="322" y="719" name="top"/>
  <anchor x="322" y="-20" name="bottom"/>
  <outline>
    <contour>
      <point x="418" y="0" type="line"/>
      <point x="584" y="0" type="line"/>
      <point x="584" y="700" type="line"/>
      <point x="304.172" y="700" type="line" smooth="yes"/>
      <point x="141.458" y="700"/>
      <point x="43" y="615"/>
      <point x="43" y="474" type="curve" smooth="yes"/>
      <point x="43" y="337"/>
      <point x="156.764" y="244"/>
      <point x="321.09" y="244" type="curve" smooth="yes"/>
      <point x="418" y="244" type="line"/>
    </contour>
    <contour>
      <point x="418" y="374" type="line"/>
      <point x="351.333" y="374" type="line" smooth="yes"/>
      <point x="246.889" y="374"/>
      <point x="208" y="398"/>
      <point x="208" y="469" type="curve" smooth="yes"/>
      <point x="208" y="543"/>
      <point x="248" y="570"/>
      <point x="351.333" y="570" type="curve" smooth="yes"/>
      <point x="418" y="570" type="line"/>
    </contour>
    <contour>
      <point x="226" y="0" type="line"/>
      <point x="241" y="60"/>
      <point x="223.933" y="143.028"/>
      <point x="241" y="183" type="curve" smooth="yes"/>
      <point x="261.933" y="232.028"/>
      <point x="313" y="242"/>
      <point x="366" y="244" type="curve"/>
      <point x="245" y="305" type="line"/>
      <point x="149" y="279"/>
      <point x="107" y="273"/>
      <point x="82" y="222" type="curve" smooth="yes"/>
      <point x="57" y="171"/>
      <point x="77" y="56"/>
      <point x="57" y="0" type="curve"/>
    </contour>
  </outline>
</glyph>
<glyph name="ae.ss14" format="2">
  <advance width="867"/>
  <anchor x="435" y="500" name="top"/>
  <anchor x="435" y="-0" name="bottom"/>
  <outline>
    <contour>
      <point x="36.74" y="426" type="line"/>
      <point x="76.5566" y="483"/>
      <point x="165.12" y="520"/>
      <point x="263.525" y="520" type="curve" smooth="yes"/>
      <point x="330.921" y="520"/>
      <point x="380.274" y="502.79"/>
      <point x="415.45" y="474.86" type="curve"/>
      <point x="460.328" y="503.34"/>
      <point x="520.105" y="520"/>
      <point x="583.966" y="520" type="curve" smooth="yes"/>
      <point x="756.705" y="520"/>
      <point x="856.543" y="401.488"/>
      <point x="838.63" y="228" type="curve"/>
      <point x="488.23" y="228" type="line"/>
      <point x="488.23" y="157"/>
      <point x="542" y="104"/>
      <point x="614" y="104" type="curve" smooth="yes"/>
      <point x="688.87" y="104"/>
      <point x="745.51" y="136"/>
      <point x="787.75" y="203" type="curve"/>
      <point x="825.19" y="73" type="line"/>
      <point x="783.91" y="17"/>
      <point x="697.51" y="-20"/>
      <point x="599.91" y="-20" type="curve" smooth="yes"/>
      <point x="506.78" y="-20"/>
      <point x="436.04" y="13.69"/>
      <point x="390.21" y="68.7" type="curve"/>
      <point x="333.898" y="5.14484"/>
      <point x="257.12" y="-20"/>
      <point x="196.784" y="-20" type="curve" smooth="yes"/>
      <point x="100.84" y="-20"/>
      <point x="29.3" y="43.58"/>
      <point x="29.3" y="135.97" type="curve" smooth="yes"/>
      <point x="29.3" y="229.35"/>
      <point x="101.689" y="283"/>
      <point x="216.142" y="283" type="curve" smooth="yes"/>
      <point x="292.443" y="283"/>
      <point x="324.725" y="307.43"/>
      <point x="324.725" y="347.13" type="curve" smooth="yes"/>
      <point x="324.725" y="378.69"/>
      <point x="302.997" y="396"/>
      <point x="251.935" y="396" type="curve" smooth="yes"/>
      <point x="184.577" y="396"/>
      <point x="124.824" y="366"/>
      <point x="74.96" y="297" type="curve"/>
    </contour>
    <contour>
      <point x="326.24" y="214" type="line"/>
      <point x="312.52" y="190"/>
      <point x="280.18" y="173"/>
      <point x="243.92" y="173" type="curve" smooth="yes"/>
      <point x="209.62" y="173"/>
      <point x="191" y="157.57"/>
      <point x="191" y="134.94" type="curve" smooth="yes"/>
      <point x="191" y="112.33"/>
      <point x="209.62" y="100"/>
      <point x="234.12" y="100" type="curve" smooth="yes"/>
      <point x="289.392" y="100"/>
      <point x="326.24" y="143.2"/>
      <point x="326.24" y="208" type="curve" smooth="yes"/>
    </contour>
    <contour>
      <point x="677.35" y="324" type="line"/>
      <point x="677.35" y="362"/>
      <point x="640.974" y="400"/>
      <point x="586.409" y="400" type="curve" smooth="yes"/>
      <point x="528.963" y="400"/>
      <point x="489.725" y="363.02"/>
      <point x="489.725" y="324" type="curve"/>
    </contour>
  </outline>
</glyph>
<glyph name="ae.ss15" format="2">
  <advance width="861"/>
  <anchor x="429" y="500" name="top"/>
  <anchor x="429" y="-0" name="bottom"/>
  <outline>
    <contour>
      <point x="322.265" y="222" type="line"/>
      <point x="315.224" y="204"/>
      <point x="293.569" y="190"/>
      <point x="256.81" y="190" type="curve" smooth="yes"/>
      <point x="215.702" y="190"/>
      <point x="186.5" y="172"/>
      <point x="186.5" y="141" type="curve" smooth="yes"/>
      <point x="186.5" y="113"/>
      <point x="209.124" y="96"/>
      <point x="236.059" y="96" type="curve" smooth="yes"/>
      <point x="287.785" y="96"/>
      <point x="322.265" y="135.59"/>
      <point x="322.265" y="195" type="curve" smooth="yes"/>
    </contour>
    <contour>
      <point x="670.3" y="330" type="line"/>
      <point x="670.3" y="357.22"/>
      <point x="648.406" y="400"/>
      <point x="580.819" y="400" type="curve" smooth="yes"/>
      <point x="512.28" y="400"/>
      <point x="487.53" y="360"/>
      <point x="487.53" y="330" type="curve"/>
    </contour>
    <contour>
      <point x="38" y="425" type="line"/>
      <point x="85.551" y="483"/>
      <point x="159.32" y="520"/>
      <point x="252.493" y="520" type="curve" smooth="yes"/>
      <point x="318.661" y="520"/>
      <point x="371.03" y="501.47"/>
      <point x="408.77" y="471.62" type="curve"/>
      <point x="450.72" y="502.07"/>
      <point x="510.647" y="520"/>
      <point x="581.05" y="520" type="curve" smooth="yes"/>
      <point x="744.99" y="520"/>
      <point x="853.377" y="411.656"/>
      <point x="834.23" y="230" type="curve"/>
      <point x="487.265" y="230" type="line"/>
      <point x="487.265" y="144.986"/>
      <point x="527.747" y="104"/>
      <point x="611.717" y="104" type="curve" smooth="yes"/>
      <point x="687.987" y="104"/>
      <point x="746.657" y="131"/>
      <point x="797.37" y="190" type="curve"/>
      <point x="806.1" y="88" type="line"/>
      <point x="759.448" y="29"/>
      <point x="691.85" y="-20"/>
      <point x="599.498" y="-20" type="curve" smooth="yes"/>
      <point x="508.815" y="-20"/>
      <point x="434.17" y="15.58"/>
      <point x="385.38" y="75.81" type="curve"/>
      <point x="338.527" y="19"/>
      <point x="288.951" y="-20"/>
      <point x="184.519" y="-20" type="curve" smooth="yes"/>
      <point x="90.499" y="-20"/>
      <point x="21.5" y="45"/>
      <point x="21.5" y="142.52" type="curve" smooth="yes"/>
      <point x="21.5" y="237.83"/>
      <point x="93.656" y="290"/>
      <point x="214.281" y="290" type="curve" smooth="yes"/>
      <point x="289.538" y="290"/>
      <point x="322.53" y="309.81"/>
      <point x="322.53" y="349.44" type="curve" smooth="yes"/>
      <point x="322.53" y="380.15"/>
      <point x="301.809" y="397"/>
      <point x="244.843" y="397" type="curve" smooth="yes"/>
      <point x="179.58" y="397"/>
      <point x="115.364" y="374"/>
      <point x="47" y="322" type="curve"/>
    </contour>
  </outline>
</glyph>
<glyph name="asciitilde.case" format="2">
  <advance width="496"/>
  <outline>
    <contour>
      <point x="36" y="303" type="line"/>
      <point x="54" y="346"/>
      <point x="104" y="367"/>
      <point x="149" y="367" type="curve" smooth="yes"/>
      <point x="179" y="367"/>
      <point x="200" y="357"/>
      <point x="240" y="326" type="curve" smooth="yes"/>
      <point x="275" y="299"/>
      <point x="298" y="286"/>
      <point x="340" y="286" type="curve" smooth="yes"/>
      <point x="395" y="286"/>
      <point x="441" y="308"/>
      <point x="465" y="389" type="curve"/>
      <point x="455" y="389" type="line"/>
      <point x="438" y="349"/>
      <point x="404" y="337"/>
      <point x="365" y="337" type="curve" smooth="yes"/>
      <point x="329" y="337"/>
      <point x="305" y="347"/>
      <point x="268" y="376" type="curve" smooth="yes"/>
      <point x="235" y="402"/>
      <point x="208" y="416"/>
      <point x="171" y="416" type="curve" smooth="yes"/>
      <point x="113" y="416"/>
      <point x="52" y="381"/>
      <point x="26" y="303" type="curve"/>
    </contour>
  </outline>
</glyph>
<glyph name="c.ss09" format="2">
  <advance width="611"/>
  <anchor x="316" y="520" name="top"/>
  <anchor x="336" y="-20" name="bottom"/>
  <outline>
    <contour>
      <point x="408" y="167" type="line"/>
      <point x="404.985" y="132"/>
      <point x="373.832" y="100"/>
      <point x="319.566" y="100" type="curve" smooth="yes"/>
      <point x="245.202" y="100"/>
      <point x="204" y="155.743"/>
      <point x="204" y="247.973" type="curve" smooth="yes"/>
      <point x="204" y="338.176"/>
      <point x="245.2" y="400"/>
      <point x="318.556" y="400" type="curve" smooth="yes"/>
      <point x="373.824" y="400"/>
      <point x="403.971" y="367.957"/>
      <point x="410" y="333" type="curve"/>
      <point x="572" y="333" type="line"/>
      <point x="554" y="451.73"/>
      <point x="454" y="520"/>
      <point x="314" y="520" type="curve" smooth="yes"/>
      <point x="142" y="520"/>
      <point x="39" y="401"/>
      <point x="39" y="255" type="curve" smooth="yes"/>
      <point x="39" y="100"/>
      <point x="142" y="-20"/>
      <point x="313" y="-20" type="curve" smooth="yes"/>
      <point x="453" y="-20"/>
      <point x="560" y="51"/>
      <point x="570" y="167" type="curve"/>
    </contour>
  </outline>
</glyph>
<glyph name="c.ss12" format="2">
  <advance width="570"/>
  <anchor x="310" y="520" name="top"/>
  <anchor x="310" y="-20" name="bottom"/>
  <outline>
    <contour>
      <point x="521" y="190" type="line"/>
      <point x="468" y="131"/>
      <point x="406" y="104"/>
      <point x="345" y="104" type="curve" smooth="yes"/>
      <point x="280" y="104"/>
      <point x="204" y="158"/>
      <point x="204" y="254" type="curve" smooth="yes"/>
      <point x="204" y="353"/>
      <point x="279" y="397"/>
      <point x="344" y="397" type="curve" smooth="yes"/>
      <point x="403" y="397"/>
      <point x="455" y="375"/>
      <point x="522" y="322" type="curve"/>
      <point x="531" y="425" type="line"/>
      <point x="480" y="486"/>
      <point x="402" y="520"/>
      <point x="315" y="520" type="curve" smooth="yes"/>
      <point x="135" y="520"/>
      <point x="39" y="401"/>
      <point x="39" y="255" type="curve" smooth="yes"/>
      <point x="39" y="100"/>
      <point x="135" y="-20"/>
      <point x="314" y="-20" type="curve" smooth="yes"/>
      <point x="411" y="-20"/>
      <point x="481" y="29"/>
      <point x="530" y="88" type="curve"/>
    </contour>
  </outline>
</glyph>
<glyph name="cent.ss09" format="2">
  <advance width="611"/>
  <outline>
    <contour>
      <point x="295" y="610" type="line"/>
      <point x="345" y="610" type="line"/>
      <point x="345" y="730" type="line"/>
      <point x="295" y="730" type="line"/>
    </contour>
    <contour>
      <point x="296" y="-31" type="line"/>
      <point x="344" y="-31" type="line"/>
      <point x="344" y="90" type="line"/>
      <point x="296" y="89" type="line"/>
    </contour>
    <contour>
      <point x="408" y="268" type="line"/>
      <point x="404.985" y="233"/>
      <point x="373.832" y="201"/>
      <point x="319.566" y="201" type="curve" smooth="yes"/>
      <point x="245.202" y="201"/>
      <point x="204" y="256.743"/>
      <point x="204" y="348.973" type="curve" smooth="yes"/>
      <point x="204" y="439.176"/>
      <point x="245.2" y="501"/>
      <point x="318.556" y="501" type="curve" smooth="yes"/>
      <point x="373.824" y="501"/>
      <point x="403.971" y="468.957"/>
      <point x="410" y="434" type="curve"/>
      <point x="572" y="434" type="line"/>
      <point x="554" y="552.73"/>
      <point x="454" y="621"/>
      <point x="314" y="621" type="curve" smooth="yes"/>
      <point x="142" y="621"/>
      <point x="39" y="502"/>
      <point x="39" y="356" type="curve" smooth="yes"/>
      <point x="39" y="201"/>
      <point x="142" y="81"/>
      <point x="313" y="81" type="curve" smooth="yes"/>
      <point x="453" y="81"/>
      <point x="560" y="152"/>
      <point x="570" y="268" type="curve"/>
    </contour>
  </outline>
</glyph>
<glyph name="e.ss09" format="2">
  <advance width="595"/>
  <anchor x="298" y="520" name="top"/>
  <anchor x="298" y="-20" name="bottom"/>
  <anchor x="415" y="-3" name="ogonek"/>
  <outline>
    <contour>
      <point x="411" y="322" type="line"/>
      <point x="411" y="371"/>
      <point x="366" y="400"/>
      <point x="306" y="400" type="curve" smooth="yes"/>
      <point x="246" y="400"/>
      <point x="195" y="371"/>
      <point x="195" y="322" type="curve"/>
    </contour>
    <contour>
      <point x="195" y="228" type="line"/>
      <point x="195" y="137.291"/>
      <point x="232" y="100"/>
      <point x="304" y="100" type="curve" smooth="yes"/>
      <point x="360" y="100"/>
      <point x="394" y="124"/>
      <point x="399" y="167" type="curve"/>
      <point x="561" y="167" type="line"/>
      <point x="541" y="51"/>
      <point x="445" y="-20"/>
      <point x="305" y="-20" type="curve" smooth="yes"/>
      <point x="137" y="-20"/>
      <point x="28" y="99"/>
      <point x="28" y="255" type="curve" smooth="yes"/>
      <point x="28" y="401"/>
      <point x="135" y="520"/>
      <point x="306" y="520" type="curve" smooth="yes"/>
      <point x="477" y="520"/>
      <point x="570" y="406"/>
      <point x="568" y="228" type="curve"/>
    </contour>
  </outline>
</glyph>
<glyph name="e.ss10" format="2">
  <advance width="585"/>
  <anchor x="298" y="520" name="top"/>
  <anchor x="298" y="-20" name="bottom"/>
  <anchor x="427" y="-3" name="ogonek"/>
  <outline>
    <contour>
      <point x="391" y="324" type="line"/>
      <point x="391" y="362"/>
      <point x="353" y="400"/>
      <point x="296" y="400" type="curve" smooth="yes"/>
      <point x="236" y="400"/>
      <point x="195" y="363.027"/>
      <point x="195" y="324" type="curve"/>
    </contour>
    <contour>
      <point x="194" y="228" type="line"/>
      <point x="194" y="157"/>
      <point x="250" y="104"/>
      <point x="325" y="104" type="curve" smooth="yes"/>
      <point x="403" y="104"/>
      <point x="462" y="136"/>
      <point x="506" y="203" type="curve"/>
      <point x="545" y="73" type="line"/>
      <point x="502" y="17"/>
      <point x="412" y="-20"/>
      <point x="310.331" y="-20" type="curve" smooth="yes"/>
      <point x="128" y="-20"/>
      <point x="28" y="99"/>
      <point x="28" y="255" type="curve" smooth="yes"/>
      <point x="28" y="401"/>
      <point x="128" y="520"/>
      <point x="297" y="520" type="curve" smooth="yes"/>
      <point x="468" y="520"/>
      <point x="559" y="387"/>
      <point x="559" y="228" type="curve"/>
    </contour>
  </outline>
</glyph>
<glyph name="efcyr.ss11" format="2">
  <advance width="844"/>
  <outline>
    <contour>
      <point x="339" y="-200" type="line"/>
      <point x="504" y="-200" type="line"/>
      <point x="504" y="700" type="line"/>
      <point x="339" y="700" type="line"/>
    </contour>
    <contour>
      <point x="446" y="158" type="line"/>
      <point x="419" y="123"/>
      <point x="369" y="104"/>
      <point x="318" y="104" type="curve" smooth="yes"/>
      <point x="239" y="104"/>
      <point x="204" y="155"/>
      <point x="204" y="254" type="curve" smooth="yes"/>
      <point x="204" y="349"/>
      <point x="243" y="396"/>
      <point x="317" y="396" type="curve" smooth="yes"/>
      <point x="364" y="396"/>
      <point x="415" y="377"/>
      <point x="442" y="342" type="curve"/>
      <point x="527" y="427" type="line"/>
      <point x="477" y="488"/>
      <point x="402" y="520"/>
      <point x="303" y="520" type="curve" smooth="yes"/>
      <point x="150" y="520"/>
      <point x="39" y="429"/>
      <point x="39" y="255" type="curve" smooth="yes"/>
      <point x="39" y="89"/>
      <point x="140" y="-20"/>
      <point x="301" y="-20" type="curve" smooth="yes"/>
      <point x="403" y="-20"/>
      <point x="481" y="12"/>
      <point x="531" y="73" type="curve"/>
    </contour>
    <contour>
      <point x="313" y="73" type="line"/>
      <point x="363" y="12"/>
      <point x="441" y="-20"/>
      <point x="543" y="-20" type="curve" smooth="yes"/>
      <point x="704" y="-20"/>
      <point x="805" y="89"/>
      <point x="805" y="255" type="curve" smooth="yes"/>
      <point x="805" y="429"/>
      <point x="694" y="520"/>
      <point x="541" y="520" type="curve" smooth="yes"/>
      <point x="442" y="520"/>
      <point x="367" y="488"/>
      <point x="317" y="427" type="curve"/>
      <point x="402" y="342" type="line"/>
      <point x="429" y="377"/>
      <point x="480" y="396"/>
      <point x="527" y="396" type="curve" smooth="yes"/>
      <point x="601" y="396"/>
      <point x="640" y="349"/>
      <point x="640" y="254" type="curve" smooth="yes"/>
      <point x="640" y="155"/>
      <point x="605" y="104"/>
      <point x="526" y="104" type="curve" smooth="yes"/>
      <point x="475" y="104"/>
      <point x="425" y="123"/>
      <point x="398" y="158" type="curve"/>
    </contour>
  </outline>
</glyph>
<glyph name="endash.case" format="2">
  <advance width="555"/>
  <outline>
    <contour>
      <point x="50" y="342" type="line"/>
      <point x="505" y="342" type="line"/>
      <point x="505" y="376" type="line"/>
      <point x="50" y="376" type="line"/>
    </contour>
  </outline>
</glyph>
<glyph name="epsilon.ss12" format="2">
  <advance width="500"/>
  <anchor x="250" y="519" name="topgr"/>
  <outline>
    <contour>
      <point x="449" y="178" type="line"/>
      <point x="377" y="126"/>
      <point x="327" y="103"/>
      <point x="270" y="103" type="curve" smooth="yes"/>
      <point x="225" y="103"/>
      <point x="195" y="117"/>
      <point x="195" y="148" type="curve" smooth="yes"/>
      <point x="195" y="214.189"/>
      <point x="349.371" y="203"/>
      <point x="388" y="203" type="curve"/>
      <point x="388" y="298" type="line"/>
      <point x="246" y="298"/>
      <point x="214" y="306"/>
      <point x="214" y="347" type="curve" smooth="yes"/>
      <point x="214" y="379"/>
      <point x="234" y="397"/>
      <point x="278" y="397" type="curve" smooth="yes"/>
      <point x="327" y="397"/>
      <point x="377" y="374"/>
      <point x="449" y="322" type="curve"/>
      <point x="458" y="425" type="line"/>
      <point x="407" y="487"/>
      <point x="326" y="520"/>
      <point x="233" y="520" type="curve" smooth="yes"/>
      <point x="102" y="520"/>
      <point x="48" y="454"/>
      <point x="48" y="374" type="curve" smooth="yes"/>
      <point x="48" y="319"/>
      <point x="74" y="272"/>
      <point x="210" y="260" type="curve"/>
      <point x="83" y="261"/>
      <point x="29" y="220"/>
      <point x="29" y="142" type="curve" smooth="yes"/>
      <point x="29" y="54"/>
      <point x="97" y="-20"/>
      <point x="240" y="-20" type="curve" smooth="yes"/>
      <point x="335" y="-20"/>
      <point x="407" y="13"/>
      <point x="458" y="75" type="curve"/>
    </contour>
  </outline>
</glyph>
<glyph name="ereversedcyr.ss10" format="2">
  <advance width="585"/>
  <anchor x="293" y="520" name="top"/>
  <anchor x="293" y="-20" name="bottom"/>
  <outline>
    <contour>
      <point x="39" y="73" type="line"/>
      <point x="82" y="17"/>
      <point x="172" y="-20"/>
      <point x="266" y="-20" type="curve" smooth="yes"/>
      <point x="439" y="-20"/>
      <point x="546" y="85"/>
      <point x="546" y="255" type="curve" smooth="yes"/>
      <point x="546" y="414"/>
      <point x="440" y="520"/>
      <point x="266" y="520" type="curve" smooth="yes"/>
      <point x="171" y="520"/>
      <point x="82" y="483"/>
      <point x="39" y="426" type="curve"/>
      <point x="78" y="297" type="line"/>
      <point x="129" y="366"/>
      <point x="184" y="396"/>
      <point x="259" y="396" type="curve" smooth="yes"/>
      <point x="339" y="396"/>
      <point x="380" y="341"/>
      <point x="380" y="256" type="curve" smooth="yes"/>
      <point x="380" y="170"/>
      <point x="339" y="104"/>
      <point x="259" y="104" type="curve" smooth="yes"/>
      <point x="181" y="104"/>
      <point x="122" y="136"/>
      <point x="78" y="203" type="curve"/>
    </contour>
    <contour>
      <point x="184" y="204" type="line"/>
      <point x="458" y="204" type="line"/>
      <point x="458" y="299" type="line"/>
      <point x="184" y="299" type="line"/>
    </contour>
  </outline>
</glyph>
<glyph name="four.osf" format="2">
  <advance width="685"/>
  <outline>
    <contour>
      <point x="16" y="-1" type="line"/>
      <point x="366" y="-1" type="line"/>
      <point x="366" y="-152" type="line"/>
      <point x="532" y="-152" type="line"/>
      <point x="532" y="-1" type="line"/>
      <point x="658" y="-1" type="line"/>
      <point x="658" y="129" type="line"/>
      <point x="532" y="129" type="line"/>
      <point x="532" y="548" type="line"/>
      <point x="335" y="548" type="line"/>
      <point x="16" y="75" type="line"/>
    </contour>
    <contour>
      <point x="204" y="129" type="line"/>
      <point x="366" y="369" type="line"/>
      <point x="366" y="129" type="line"/>
    </contour>
  </outline>
</glyph>
<glyph name="g.ss12" format="2">
  <advance width="635"/>
  <anchor x="308" y="-220" name="bottom"/>
  <anchor x="317" y="520" name="top"/>
  <outline>
    <contour>
      <point x="268" y="-20" type="curve" smooth="yes"/>
      <point x="377" y="-20"/>
      <point x="448" y="90"/>
      <point x="448" y="255" type="curve" smooth="yes"/>
      <point x="448" y="421"/>
      <point x="379" y="520"/>
      <point x="262" y="520" type="curve" smooth="yes"/>
      <point x="123" y="520"/>
      <point x="49" y="411"/>
      <point x="49" y="255" type="curve" smooth="yes"/>
      <point x="49" y="99"/>
      <point x="132" y="-20"/>
    </contour>
    <contour>
      <point x="319" y="106" type="curve" smooth="yes"/>
      <point x="259" y="106"/>
      <point x="215" y="168"/>
      <point x="215" y="256" type="curve" smooth="yes"/>
      <point x="215" y="341"/>
      <point x="255" y="393"/>
      <point x="320" y="393" type="curve" smooth="yes"/>
      <point x="377" y="393"/>
      <point x="416" y="337"/>
      <point x="416" y="257" type="curve" smooth="yes"/>
      <point x="416" y="166"/>
      <point x="378" y="106"/>
    </contour>
    <contour>
      <point x="74" y="-125" type="line"/>
      <point x="125" y="-186"/>
      <point x="203" y="-220"/>
      <point x="290" y="-220" type="curve" smooth="yes"/>
      <point x="474" y="-220"/>
      <point x="581" y="-140"/>
      <point x="581" y="32" type="curve" smooth="yes"/>
      <point x="581" y="500" type="line"/>
      <point x="417" y="500" type="line"/>
      <point x="417" y="42" type="line" smooth="yes"/>
      <point x="417" y="-60"/>
      <point x="379" y="-97"/>
      <point x="271" y="-97" type="curve" smooth="yes"/>
      <point x="208" y="-97"/>
      <point x="149" y="-75"/>
      <point x="83" y="-22" type="curve"/>
    </contour>
  </outline>
</glyph>
<glyph name="hardcyr.loclBGR" format="2">
  <advance width="600"/>
  <outline>
    <contour>
      <point x="168" y="220" type="line"/>
      <point x="316" y="220" type="line" smooth="yes"/>
      <point x="372" y="220"/>
      <point x="395" y="205.306"/>
      <point x="395" y="160" type="curve" smooth="yes"/>
      <point x="395" y="121.552"/>
      <point x="374.554" y="100"/>
      <point x="338.079" y="100" type="curve" smooth="yes"/>
      <point x="299.502" y="100"/>
      <point x="281.902" y="116.479"/>
      <point x="281.911" y="152.632" type="curve" smooth="yes"/>
      <point x="282" y="500" type="line"/>
      <point x="117" y="500" type="line"/>
      <point x="116.911" y="156.8" type="line" smooth="yes"/>
      <point x="116.881" y="40.9087"/>
      <point x="192.645" y="-20"/>
      <point x="336.831" y="-20" type="curve" smooth="yes"/>
      <point x="473.596" y="-20"/>
      <point x="560" y="47.6092"/>
      <point x="560" y="160" type="curve" smooth="yes"/>
      <point x="560" y="254.737"/>
      <point x="500" y="340"/>
      <point x="365" y="340" type="curve" smooth="yes"/>
      <point x="168" y="340" type="line"/>
    </contour>
    <contour>
      <point x="21" y="378" type="line"/>
      <point x="179" y="378" type="line"/>
      <point x="212" y="500" type="line"/>
      <point x="21" y="500" type="line"/>
    </contour>
  </outline>
</glyph>
<glyph name="hryvnia.ss12" format="2">
  <advance width="710"/>
  <outline>
    <contour>
      <point x="21" y="275" type="line"/>
      <point x="123.39" y="275" type="line"/>
      <point x="112.38" y="250.37"/>
      <point x="106" y="220.56"/>
      <point x="106" y="184" type="curve" smooth="yes"/>
      <point x="106" y="62"/>
      <point x="203" y="-20"/>
      <point x="347" y="-20" type="curve" smooth="yes"/>
      <point x="453" y="-20"/>
      <point x="536" y="24"/>
      <point x="612" y="113" type="curve"/>
      <point x="600" y="227" type="line"/>
      <point x="514" y="146"/>
      <point x="452" y="111"/>
      <point x="373" y="111" type="curve" smooth="yes"/>
      <point x="297" y="111"/>
      <point x="272" y="138"/>
      <point x="272" y="185" type="curve" smooth="yes"/>
      <point x="272" y="231.96"/>
      <point x="304.64" y="255.98"/>
      <point x="349.48" y="275" type="curve"/>
      <point x="689" y="275" type="line"/>
      <point x="689" y="309" type="line"/>
      <point x="21" y="309" type="line"/>
    </contour>
    <contour>
      <point x="21" y="407" type="line"/>
      <point x="689" y="407" type="line"/>
      <point x="689" y="441" type="line"/>
      <point x="593.74" y="441" type="line"/>
      <point x="600.95" y="462.6"/>
      <point x="605" y="487.67"/>
      <point x="605" y="517" type="curve" smooth="yes"/>
      <point x="605" y="642"/>
      <point x="517" y="720"/>
      <point x="384" y="720" type="curve" smooth="yes"/>
      <point x="281" y="720"/>
      <point x="193" y="675"/>
      <point x="120" y="587" type="curve"/>
      <point x="132" y="473" type="line"/>
      <point x="209" y="554"/>
      <point x="275" y="589"/>
      <point x="349" y="589" type="curve" smooth="yes"/>
      <point x="420" y="589"/>
      <point x="439" y="556"/>
      <point x="439" y="508" type="curve" smooth="yes"/>
      <point x="439" y="477.22"/>
      <point x="424.6" y="456.65"/>
      <point x="401.79" y="441" type="curve"/>
      <point x="21" y="441" type="line"/>
    </contour>
  </outline>
</glyph>
<glyph name="nine.osf.ss09" format="2">
  <advance width="650"/>
  <outline>
    <contour>
      <point x="204" y="332" type="curve" smooth="yes"/>
      <point x="204" y="261"/>
      <point x="248" y="220"/>
      <point x="323" y="220" type="curve" smooth="yes"/>
      <point x="401" y="220"/>
      <point x="443" y="260"/>
      <point x="443" y="333" type="curve" smooth="yes"/>
      <point x="443" y="406"/>
      <point x="402" y="444"/>
      <point x="325" y="444" type="curve" smooth="yes"/>
      <point x="249" y="444"/>
      <point x="204" y="403"/>
    </contour>
    <contour>
      <point x="220" y="52" type="line"/>
      <point x="233" y="-8"/>
      <point x="265" y="-35"/>
      <point x="325" y="-35" type="curve" smooth="yes"/>
      <point x="434" y="-35"/>
      <point x="477" y="46"/>
      <point x="477" y="163" type="curve"/>
      <point x="438" y="124"/>
      <point x="367" y="101"/>
      <point x="290" y="101" type="curve" smooth="yes"/>
      <point x="131" y="101"/>
      <point x="38" y="187"/>
      <point x="38" y="324" type="curve" smooth="yes"/>
      <point x="38" y="474"/>
      <point x="148" y="574"/>
      <point x="312" y="574" type="curve" smooth="yes"/>
      <point x="505" y="574"/>
      <point x="620" y="437"/>
      <point x="620" y="194" type="curve" smooth="yes"/>
      <point x="620" y="-32"/>
      <point x="521" y="-166"/>
      <point x="321" y="-166" type="curve" smooth="yes"/>
      <point x="166" y="-166"/>
      <point x="81" y="-85"/>
      <point x="54" y="52" type="curve"/>
    </contour>
  </outline>
</glyph>
<glyph name="question.ss10" format="2">
  <advance width="551"/>
  <outline>
    <contour>
      <point x="241" y="-20" type="curve" smooth="yes"/>
      <point x="293" y="-20"/>
      <point x="332" y="21"/>
      <point x="332" y="69" type="curve" smooth="yes"/>
      <point x="332" y="121"/>
      <point x="293" y="160"/>
      <point x="241" y="160" type="curve" smooth="yes"/>
      <point x="190" y="160"/>
      <point x="152" y="121"/>
      <point x="152" y="69" type="curve" smooth="yes"/>
      <point x="152" y="21"/>
      <point x="190" y="-20"/>
    </contour>
    <contour>
      <point x="158" y="250" type="line"/>
      <point x="324" y="250" type="line"/>
      <point x="324" y="332" type="line"/>
      <point x="448" y="388"/>
      <point x="521" y="475"/>
      <point x="521" y="567" type="curve" smooth="yes"/>
      <point x="521" y="690"/>
      <point x="439" y="767"/>
      <point x="287" y="767" type="curve" smooth="yes"/>
      <point x="164" y="767"/>
      <point x="79" y="711"/>
      <point x="25" y="630" type="curve"/>
      <point x="70" y="471" type="line"/>
      <point x="140" y="588"/>
      <point x="191" y="636"/>
      <point x="275" y="636" type="curve" smooth="yes"/>
      <point x="335" y="636"/>
      <point x="355" y="612"/>
      <point x="355" y="556" type="curve" smooth="yes"/>
      <point x="355" y="496"/>
      <point x="299" y="440"/>
      <point x="158" y="365" type="curve"/>
    </contour>
  </outline>
</glyph>
<glyph name="s.ss10" format="2">
  <advance width="522"/>
  <anchor x="250" y="520" name="top"/>
  <anchor x="265" y="-20" name="bottom"/>
  <outline>
    <contour>
      <point x="28" y="87" type="line"/>
      <point x="70" y="26"/>
      <point x="142" y="-20"/>
      <point x="261" y="-20" type="curve" smooth="yes"/>
      <point x="400" y="-20"/>
      <point x="484" y="43"/>
      <point x="484" y="146" type="curve" smooth="yes"/>
      <point x="484" y="259.779"/>
      <point x="380.71" y="284.553"/>
      <point x="299.154" y="304.114" type="curve" smooth="yes"/>
      <point x="245.953" y="316.874"/>
      <point x="202" y="327.417"/>
      <point x="202" y="359" type="curve" smooth="yes"/>
      <point x="202" y="385"/>
      <point x="231" y="400"/>
      <point x="277" y="400" type="curve" smooth="yes"/>
      <point x="341" y="400"/>
      <point x="386" y="370"/>
      <point x="435" y="301" type="curve"/>
      <point x="472" y="430" type="line"/>
      <point x="447" y="470"/>
      <point x="370" y="520"/>
      <point x="255" y="520" type="curve" smooth="yes"/>
      <point x="120" y="520"/>
      <point x="36" y="452"/>
      <point x="36" y="352" type="curve" smooth="yes"/>
      <point x="36" y="243.626"/>
      <point x="135.99" y="217.868"/>
      <point x="216.89" y="197.028" type="curve" smooth="yes"/>
      <point x="271.851" y="182.869"/>
      <point x="318" y="170.981"/>
      <point x="318" y="137" type="curve" smooth="yes"/>
      <point x="318" y="113"/>
      <point x="294" y="100"/>
      <point x="249" y="100" type="curve" smooth="yes"/>
      <point x="175" y="100"/>
      <point x="120" y="136"/>
      <point x="69" y="213" type="curve"/>
    </contour>
  </outline>
</glyph>
<glyph name="schwa.ss12" format="2">
  <advance width="600"/>
  <anchor x="300" y="-20" name="bottom"/>
  <anchor x="300" y="520" name="top"/>
  <outline>
    <contour>
      <point x="394" y="190" type="curve"/>
      <point x="215" y="190" type="line"/>
      <point x="221" y="150.562"/>
      <point x="246" y="100"/>
      <point x="307" y="100" type="curve" smooth="yes"/>
      <point x="367" y="100"/>
      <point x="389" y="150"/>
    </contour>
    <contour>
      <point x="52" y="290" type="curve"/>
      <point x="394" y="290" type="line"/>
      <point x="390" y="349"/>
      <point x="361" y="400"/>
      <point x="277" y="400" type="curve" smooth="yes"/>
      <point x="219" y="400"/>
      <point x="158" y="376.387"/>
      <point x="86" y="323" type="curve"/>
      <point x="77" y="425" type="line"/>
      <point x="124" y="486"/>
      <point x="198" y="520"/>
      <point x="294" y="520" type="curve" smooth="yes"/>
      <point x="476" y="520"/>
      <point x="561" y="397"/>
      <point x="561" y="252" type="curve" smooth="yes"/>
      <point x="561" y="94"/>
      <point x="459" y="-20"/>
      <point x="305" y="-20" type="curve" smooth="yes"/>
      <point x="153" y="-20"/>
      <point x="49" y="90"/>
      <point x="49" y="253" type="curve" smooth="yes"/>
      <point x="49" y="265.21"/>
      <point x="50" y="277.79"/>
    </contour>
  </outline>
</glyph>
<glyph name="shchacyr.loclBGR" format="2">
  <advance width="964"/>
  <outline>
    <contour>
      <point x="869" y="500" type="line"/>
      <point x="704" y="500" type="line"/>
      <point x="704" y="0" type="line"/>
      <point x="869" y="0" type="line"/>
    </contour>
    <contour>
      <point x="544" y="500" type="line"/>
      <point x="379" y="500" type="line"/>
      <point x="379" y="196" type="line" smooth="yes"/>
      <point x="379" y="52"/>
      <point x="436" y="-20"/>
      <point x="533" y="-20" type="curve" smooth="yes"/>
      <point x="642" y="-20"/>
      <point x="702" y="72"/>
      <point x="718" y="150" type="curve"/>
      <point x="716" y="222" type="line"/>
      <point x="704" y="283" type="line"/>
      <point x="704" y="188"/>
      <point x="673" y="104"/>
      <point x="607" y="104" type="curve" smooth="yes"/>
      <point x="569" y="104"/>
      <point x="544" y="133"/>
      <point x="544" y="228" type="curve" smooth="yes"/>
    </contour>
    <contour>
      <point x="219" y="500" type="line"/>
      <point x="54" y="500" type="line"/>
      <point x="54" y="196" type="line" smooth="yes"/>
      <point x="54" y="52"/>
      <point x="111" y="-20"/>
      <point x="208" y="-20" type="curve" smooth="yes"/>
      <point x="317" y="-20"/>
      <point x="377" y="72"/>
      <point x="393" y="150" type="curve"/>
      <point x="391" y="222" type="line"/>
      <point x="379" y="283" type="line"/>
      <point x="379" y="188"/>
      <point x="348" y="104"/>
      <point x="282" y="104" type="curve" smooth="yes"/>
      <point x="244" y="104"/>
      <point x="219" y="133"/>
      <point x="219" y="228" type="curve" smooth="yes"/>
    </contour>
    <contour>
      <point x="945" y="-140" type="line"/>
      <point x="945" y="82"/>
      <point x="924.175" y="121"/>
      <point x="826" y="121" type="curve"/>
      <point x="774" y="0" type="line"/>
      <point x="843.283" y="0"/>
      <point x="828" y="-72"/>
      <point x="828" y="-140" type="curve"/>
    </contour>
  </outline>
</glyph>
<glyph name="sigmafinal.ss09" format="2">
  <advance width="610"/>
  <anchor x="305" y="519" name="topgr"/>
  <outline>
    <contour>
      <point x="516" y="-200" type="line"/>
      <point x="538" y="-175"/>
      <point x="568" y="-132"/>
      <point x="568" y="-71" type="curve" smooth="yes"/>
      <point x="568" y="52"/>
      <point x="444" y="102"/>
      <point x="340" y="102" type="curve" smooth="yes"/>
      <point x="233" y="102"/>
      <point x="195" y="155.358"/>
      <point x="195" y="247.98" type="curve" smooth="yes"/>
      <point x="195" y="344.628"/>
      <point x="236" y="400"/>
      <point x="309" y="400" type="curve" smooth="yes"/>
      <point x="364" y="400"/>
      <point x="394" y="367.957"/>
      <point x="400" y="333" type="curve"/>
      <point x="562" y="333" type="line"/>
      <point x="544" y="451.73"/>
      <point x="444" y="520"/>
      <point x="309" y="520" type="curve" smooth="yes"/>
      <point x="132" y="520"/>
      <point x="29" y="401"/>
      <point x="29" y="251" type="curve" smooth="yes"/>
      <point x="29" y="100"/>
      <point x="132" y="-20"/>
      <point x="301" y="-20" type="curve" smooth="yes"/>
      <point x="384" y="-20"/>
      <point x="403" y="-49"/>
      <point x="403" y="-94" type="curve" smooth="yes"/>
      <point x="403" y="-142"/>
      <point x="382" y="-165"/>
      <point x="357" y="-200" type="curve"/>
    </contour>
  </outline>
</glyph>
<glyph name="six.osf" format="2">
  <advance width="631"/>
  <outline>
    <contour>
      <point x="583" y="628" type="line"/>
      <point x="545" y="665"/>
      <point x="470" y="720"/>
      <point x="339" y="720" type="curve" smooth="yes"/>
      <point x="144" y="720"/>
      <point x="28" y="581"/>
      <point x="28" y="338" type="curve" smooth="yes"/>
      <point x="28" y="103"/>
      <point x="133" y="-20"/>
      <point x="319" y="-20" type="curve" smooth="yes"/>
      <point x="491" y="-20"/>
      <point x="599" y="86"/>
      <point x="599" y="228" type="curve" smooth="yes"/>
      <point x="599" y="372"/>
      <point x="493" y="458"/>
      <point x="359" y="458" type="curve" smooth="yes"/>
      <point x="267.063" y="458"/>
      <point x="187.983" y="418.001"/>
      <point x="163.751" y="346.555" type="curve"/>
      <point x="179.39" y="338.906" type="line"/>
      <point x="173.575" y="499.134"/>
      <point x="232.986" y="589"/>
      <point x="345" y="589" type="curve" smooth="yes"/>
      <point x="400" y="589"/>
      <point x="443.888" y="567.23"/>
      <point x="485" y="530" type="curve"/>
    </contour>
    <contour>
      <point x="212" y="217" type="curve" smooth="yes"/>
      <point x="212" y="291"/>
      <point x="256" y="338"/>
      <point x="327" y="338" type="curve" smooth="yes"/>
      <point x="395" y="338"/>
      <point x="434" y="295"/>
      <point x="434" y="228" type="curve" smooth="yes"/>
      <point x="434" y="155"/>
      <point x="389" y="110"/>
      <point x="317" y="110" type="curve" smooth="yes"/>
      <point x="251" y="110"/>
      <point x="212" y="148"/>
    </contour>
  </outline>
</glyph>
<glyph name="six.osf.ss09" format="2">
  <advance width="650"/>
  <outline>
    <contour>
      <point x="215" y="221" type="curve" smooth="yes"/>
      <point x="215" y="148"/>
      <point x="256" y="110"/>
      <point x="333" y="110" type="curve" smooth="yes"/>
      <point x="409" y="110"/>
      <point x="454" y="151"/>
      <point x="454" y="222" type="curve" smooth="yes"/>
      <point x="454" y="293"/>
      <point x="410" y="334"/>
      <point x="335" y="334" type="curve" smooth="yes"/>
      <point x="257" y="334"/>
      <point x="215" y="294"/>
    </contour>
    <contour>
      <point x="438" y="502" type="line"/>
      <point x="425" y="562"/>
      <point x="393" y="589"/>
      <point x="333" y="589" type="curve" smooth="yes"/>
      <point x="224" y="589"/>
      <point x="181" y="508"/>
      <point x="181" y="391" type="curve"/>
      <point x="220" y="430"/>
      <point x="291" y="453"/>
      <point x="368" y="453" type="curve" smooth="yes"/>
      <point x="527" y="453"/>
      <point x="620" y="367"/>
      <point x="620" y="230" type="curve" smooth="yes"/>
      <point x="620" y="80"/>
      <point x="510" y="-20"/>
      <point x="346" y="-20" type="curve" smooth="yes"/>
      <point x="153" y="-20"/>
      <point x="38" y="117"/>
      <point x="38" y="360" type="curve" smooth="yes"/>
      <point x="38" y="586"/>
      <point x="137" y="720"/>
      <point x="337" y="720" type="curve" smooth="yes"/>
      <point x="492" y="720"/>
      <point x="577" y="639"/>
      <point x="604" y="502" type="curve"/>
    </contour>
  </outline>
</glyph>
<glyph name="six.ss10" format="2">
  <advance width="667"/>
  <outline>
    <contour>
      <point x="218" y="228" type="curve" smooth="yes"/>
      <point x="218" y="156"/>
      <point x="267" y="110"/>
      <point x="337" y="110" type="curve" smooth="yes"/>
      <point x="409" y="110"/>
      <point x="458" y="158"/>
      <point x="458" y="230" type="curve" smooth="yes"/>
      <point x="458" y="299"/>
      <point x="408" y="342"/>
      <point x="337" y="342" type="curve" smooth="yes"/>
      <point x="261" y="342"/>
      <point x="218" y="297"/>
    </contour>
    <contour>
      <point x="577" y="424" type="line"/>
      <point x="502" y="544"/>
      <point x="434" y="589"/>
      <point x="361" y="589" type="curve" smooth="yes"/>
      <point x="259" y="589"/>
      <point x="198.9" y="529.83"/>
      <point x="192.49" y="391.92" type="curve"/>
      <point x="237.69" y="436.12"/>
      <point x="299.12" y="461"/>
      <point x="376" y="461" type="curve" smooth="yes"/>
      <point x="523" y="461"/>
      <point x="624" y="365"/>
      <point x="624" y="226" type="curve" smooth="yes"/>
      <point x="624" y="88"/>
      <point x="525" y="-20"/>
      <point x="345" y="-20" type="curve" smooth="yes"/>
      <point x="153" y="-20"/>
      <point x="42" y="103"/>
      <point x="42" y="339" type="curve" smooth="yes"/>
      <point x="42" y="578"/>
      <point x="156" y="720"/>
      <point x="348" y="720" type="curve" smooth="yes"/>
      <point x="469" y="720"/>
      <point x="563" y="666"/>
      <point x="622" y="583" type="curve"/>
    </contour>
  </outline>
</glyph>
<glyph name="six.ss12" format="2">
  <advance width="650"/>
  <outline>
    <contour>
      <point x="214" y="228" type="curve" smooth="yes"/>
      <point x="214" y="156"/>
      <point x="263" y="110"/>
      <point x="333" y="110" type="curve" smooth="yes"/>
      <point x="405" y="110"/>
      <point x="454" y="158"/>
      <point x="454" y="230" type="curve" smooth="yes"/>
      <point x="454" y="299"/>
      <point x="404" y="342"/>
      <point x="333" y="342" type="curve" smooth="yes"/>
      <point x="257" y="342"/>
      <point x="214" y="297"/>
    </contour>
    <contour>
      <point x="607" y="473" type="line"/>
      <point x="530" y="555"/>
      <point x="462" y="589"/>
      <point x="357" y="589" type="curve" smooth="yes"/>
      <point x="250" y="589"/>
      <point x="180" y="534"/>
      <point x="178" y="382" type="curve"/>
      <point x="224" y="434"/>
      <point x="289" y="461"/>
      <point x="372" y="461" type="curve" smooth="yes"/>
      <point x="519" y="461"/>
      <point x="620" y="365"/>
      <point x="620" y="226" type="curve" smooth="yes"/>
      <point x="620" y="88"/>
      <point x="521" y="-20"/>
      <point x="341" y="-20" type="curve" smooth="yes"/>
      <point x="149" y="-20"/>
      <point x="38" y="103"/>
      <point x="38" y="339" type="curve" smooth="yes"/>
      <point x="38" y="578"/>
      <point x="152" y="720"/>
      <point x="344" y="720" type="curve" smooth="yes"/>
      <point x="455" y="720"/>
      <point x="542" y="677"/>
      <point x="619" y="587" type="curve"/>
    </contour>
  </outline>
</glyph>
<glyph name="softcyr.loclBGR" format="2">
  <advance width="536"/>
  <anchor x="268" y="-20" name="bottom"/>
  <anchor x="268" y="520" name="top"/>
  <outline>
    <contour>
      <point x="104" y="220" type="line"/>
      <point x="252" y="220" type="line" smooth="yes"/>
      <point x="308" y="220"/>
      <point x="331" y="205.306"/>
      <point x="331" y="160" type="curve" smooth="yes"/>
      <point x="331" y="121.552"/>
      <point x="310.554" y="100"/>
      <point x="274.079" y="100" type="curve" smooth="yes"/>
      <point x="235.502" y="100"/>
      <point x="217.902" y="116.479"/>
      <point x="217.911" y="152.632" type="curve" smooth="yes"/>
      <point x="218" y="500" type="line"/>
      <point x="53" y="500" type="line"/>
      <point x="52.9113" y="156.8" type="line" smooth="yes"/>
      <point x="52.8813" y="40.9087"/>
      <point x="128.645" y="-20"/>
      <point x="272.831" y="-20" type="curve" smooth="yes"/>
      <point x="409.596" y="-20"/>
      <point x="496" y="47.6092"/>
      <point x="496" y="160" type="curve" smooth="yes"/>
      <point x="496" y="254.737"/>
      <point x="436" y="340"/>
      <point x="301" y="340" type="curve" smooth="yes"/>
      <point x="104" y="340" type="line"/>
    </contour>
  </outline>
</glyph>
<glyph name="sterling.ss09" format="2">
  <advance width="660"/>
  <outline>
    <contour>
      <point x="24" y="276" type="line"/>
      <point x="34" y="386" type="line"/>
      <point x="464" y="386" type="line"/>
      <point x="454" y="276" type="line"/>
    </contour>
    <contour>
      <point x="53" y="51" type="line"/>
      <point x="101.889" y="100"/>
      <point x="162.75" y="139"/>
      <point x="162.75" y="217" type="curve" smooth="yes"/>
      <point x="162.75" y="319"/>
      <point x="60" y="400"/>
      <point x="60" y="520" type="curve" smooth="yes"/>
      <point x="60" y="640"/>
      <point x="163" y="720"/>
      <point x="323" y="720" type="curve" smooth="yes"/>
      <point x="484" y="720"/>
      <point x="569" y="639"/>
      <point x="596" y="502" type="curve"/>
      <point x="430" y="502" type="line"/>
      <point x="415.966" y="565"/>
      <point x="381.882" y="589"/>
      <point x="327.75" y="589" type="curve" smooth="yes"/>
      <point x="261.91" y="589"/>
      <point x="225" y="554"/>
      <point x="225" y="492" type="curve" smooth="yes"/>
      <point x="225" y="389"/>
      <point x="327.5" y="342"/>
      <point x="327.5" y="232" type="curve" smooth="yes"/>
      <point x="327.5" y="193"/>
      <point x="314.377" y="166"/>
      <point x="274" y="139" type="curve"/>
      <point x="346" y="147"/>
      <point x="346" y="104"/>
      <point x="398" y="104" type="curve" smooth="yes"/>
      <point x="433" y="104"/>
      <point x="448" y="123.691"/>
      <point x="455" y="161" type="curve"/>
      <point x="621" y="161" type="line"/>
      <point x="606" y="50.8216"/>
      <point x="548" y="-26"/>
      <point x="417" y="-26" type="curve" smooth="yes"/>
      <point x="288" y="-26"/>
      <point x="271" y="47"/>
      <point x="195" y="47" type="curve" smooth="yes"/>
      <point x="173" y="47"/>
      <point x="145" y="41"/>
      <point x="53" y="-39" type="curve"/>
    </contour>
  </outline>
</glyph>
<glyph name="three.osf" format="2">
  <advance width="578"/>
  <outline>
    <contour>
      <point x="24" y="-63" type="line"/>
      <point x="87" y="-130"/>
      <point x="173" y="-166"/>
      <point x="290" y="-166" type="curve" smooth="yes"/>
      <point x="473" y="-166"/>
      <point x="542" y="-78"/>
      <point x="542" y="35" type="curve" smooth="yes"/>
      <point x="542" y="178"/>
      <point x="430" y="241"/>
      <point x="192" y="221" type="curve"/>
      <point x="192" y="141" type="line"/>
      <point x="321" y="141"/>
      <point x="377" y="116"/>
      <point x="377" y="48" type="curve" smooth="yes"/>
      <point x="377" y="-8"/>
      <point x="338" y="-36"/>
      <point x="274" y="-36" type="curve" smooth="yes"/>
      <point x="217" y="-36"/>
      <point x="173" y="-14"/>
      <point x="122" y="35" type="curve"/>
    </contour>
    <contour>
      <point x="192" y="214" type="line"/>
      <point x="439" y="204"/>
      <point x="520" y="283"/>
      <point x="520" y="386" type="curve" smooth="yes"/>
      <point x="520" y="482"/>
      <point x="449" y="573"/>
      <point x="286" y="573" type="curve" smooth="yes"/>
      <point x="155" y="573"/>
      <point x="80" y="518"/>
      <point x="42" y="481" type="curve"/>
      <point x="140" y="383" type="line"/>
      <point x="193" y="421"/>
      <point x="225" y="442"/>
      <point x="280" y="442" type="curve" smooth="yes"/>
      <point x="330" y="442"/>
      <point x="355" y="421"/>
      <point x="355" y="377" type="curve" smooth="yes"/>
      <point x="355" y="333"/>
      <point x="328" y="292"/>
      <point x="192" y="292" type="curve"/>
    </contour>
  </outline>
</glyph>
<glyph name="three.osf.ss10" format="2">
  <advance width="550"/>
  <outline>
    <contour>
      <point x="192" y="270" type="line"/>
      <point x="312" y="270"/>
      <point x="337" y="315.633"/>
      <point x="337" y="365.946" type="curve" smooth="yes"/>
      <point x="337" y="417.429"/>
      <point x="310" y="442"/>
      <point x="267" y="442" type="curve" smooth="yes"/>
      <point x="186" y="442"/>
      <point x="108" y="367"/>
      <point x="55" y="277" type="curve"/>
      <point x="10" y="436" type="line"/>
      <point x="67" y="517"/>
      <point x="156" y="573"/>
      <point x="276" y="573" type="curve" smooth="yes"/>
      <point x="431" y="573"/>
      <point x="500" y="473.506"/>
      <point x="500" y="370.802" type="curve" smooth="yes"/>
      <point x="500" y="263.818"/>
      <point x="424" y="190"/>
      <point x="192" y="190" type="curve"/>
    </contour>
    <contour>
      <point x="59" y="128" type="line"/>
      <point x="117" y="32"/>
      <point x="191" y="-37"/>
      <point x="273" y="-37" type="curve" smooth="yes"/>
      <point x="326" y="-37"/>
      <point x="357" y="-3.60606"/>
      <point x="357" y="53.9697" type="curve" smooth="yes"/>
      <point x="357" y="109.242"/>
      <point x="329" y="153"/>
      <point x="192" y="153" type="curve"/>
      <point x="192" y="233" type="line"/>
      <point x="439" y="233"/>
      <point x="520" y="156.2"/>
      <point x="520" y="46.3333" type="curve" smooth="yes"/>
      <point x="520" y="-62.4667"/>
      <point x="442" y="-167"/>
      <point x="281" y="-167" type="curve" smooth="yes"/>
      <point x="160" y="-167"/>
      <point x="71" y="-111"/>
      <point x="14" y="-30" type="curve"/>
    </contour>
  </outline>
</glyph>
<glyph name="three.ss09" format="2">
  <advance width="550"/>
  <outline>
    <contour>
      <point x="192" y="337" type="line"/>
      <point x="424" y="337"/>
      <point x="500" y="410.818"/>
      <point x="500" y="517.802" type="curve" smooth="yes"/>
      <point x="500" y="620.506"/>
      <point x="431" y="720"/>
      <point x="272" y="720" type="curve" smooth="yes"/>
      <point x="124" y="720"/>
      <point x="35" y="639"/>
      <point x="9" y="502" type="curve"/>
      <point x="175" y="502" type="line"/>
      <point x="188" y="562"/>
      <point x="220" y="589"/>
      <point x="268" y="589" type="curve" smooth="yes"/>
      <point x="313" y="589"/>
      <point x="337" y="562.088"/>
      <point x="337" y="512.946" type="curve" smooth="yes"/>
      <point x="337" y="462.633"/>
      <point x="312" y="417"/>
      <point x="192" y="417" type="curve"/>
    </contour>
    <contour>
      <point x="13" y="198" type="line"/>
      <point x="39" y="55"/>
      <point x="128" y="-20"/>
      <point x="275" y="-20" type="curve" smooth="yes"/>
      <point x="442" y="-20"/>
      <point x="520" y="84.5333"/>
      <point x="520" y="193.333" type="curve" smooth="yes"/>
      <point x="520" y="303.2"/>
      <point x="439" y="380"/>
      <point x="192" y="380" type="curve"/>
      <point x="192" y="300" type="line"/>
      <point x="329" y="300"/>
      <point x="357" y="249.333"/>
      <point x="357" y="191.758" type="curve" smooth="yes"/>
      <point x="357" y="136.485"/>
      <point x="331" y="110"/>
      <point x="279" y="110" type="curve" smooth="yes"/>
      <point x="226" y="110"/>
      <point x="193" y="134"/>
      <point x="179" y="198" type="curve"/>
    </contour>
  </outline>
</glyph>
<glyph name="three.ss10" format="2">
  <advance width="550"/>
  <outline>
    <contour>
      <point x="192" y="417" type="line"/>
      <point x="312" y="417"/>
      <point x="337" y="462.633"/>
      <point x="337" y="512.946" type="curve" smooth="yes"/>
      <point x="337" y="564.429"/>
      <point x="310" y="589"/>
      <point x="267" y="589" type="curve" smooth="yes"/>
      <point x="186" y="589"/>
      <point x="108" y="514"/>
      <point x="55" y="424" type="curve"/>
      <point x="10" y="583" type="line"/>
      <point x="67" y="664"/>
      <point x="156" y="720"/>
      <point x="276" y="720" type="curve" smooth="yes"/>
      <point x="431" y="720"/>
      <point x="500" y="620.506"/>
      <point x="500" y="517.802" type="curve" smooth="yes"/>
      <point x="500" y="410.818"/>
      <point x="424" y="337"/>
      <point x="192" y="337" type="curve"/>
    </contour>
    <contour>
      <point x="59" y="275" type="line"/>
      <point x="117" y="179"/>
      <point x="191" y="110"/>
      <point x="273" y="110" type="curve" smooth="yes"/>
      <point x="326" y="110"/>
      <point x="357" y="143.394"/>
      <point x="357" y="200.97" type="curve" smooth="yes"/>
      <point x="357" y="256.242"/>
      <point x="329" y="300"/>
      <point x="192" y="300" type="curve"/>
      <point x="192" y="380" type="line"/>
      <point x="439" y="380"/>
      <point x="520" y="303.2"/>
      <point x="520" y="193.333" type="curve" smooth="yes"/>
      <point x="520" y="84.5333"/>
      <point x="442" y="-20"/>
      <point x="281" y="-20" type="curve" smooth="yes"/>
      <point x="160" y="-20"/>
      <point x="71" y="36"/>
      <point x="14" y="117" type="curve"/>
    </contour>
  </outline>
</glyph>
<glyph name="two.osf.ss10" format="2">
  <advance width="612"/>
  <outline>
    <contour>
      <point x="46" y="0" type="line"/>
      <point x="565" y="0" type="line"/>
      <point x="565" y="125" type="line"/>
      <point x="46" y="125" type="line"/>
    </contour>
    <contour>
      <point x="46" y="54" type="line"/>
      <point x="374.241" y="110.623"/>
      <point x="545" y="191.432"/>
      <point x="545" y="359.134" type="curve" smooth="yes"/>
      <point x="545" y="494.802"/>
      <point x="458.502" y="573"/>
      <point x="314.339" y="573" type="curve" smooth="yes"/>
      <point x="198.047" y="573"/>
      <point x="107.704" y="519"/>
      <point x="51" y="436" type="curve"/>
      <point x="96" y="277" type="line"/>
      <point x="166.066" y="397"/>
      <point x="227.724" y="442"/>
      <point x="295.921" y="442" type="curve" smooth="yes"/>
      <point x="354.776" y="442"/>
      <point x="380" y="411.85"/>
      <point x="380" y="359.53" type="curve" smooth="yes"/>
      <point x="380" y="254.89"/>
      <point x="279.989" y="188.381"/>
      <point x="46" y="167" type="curve"/>
    </contour>
  </outline>
</glyph>
<glyph name="two.osf.ss12" format="2">
  <advance width="612"/>
  <outline>
    <contour>
      <point x="46" y="0" type="line"/>
      <point x="565" y="0" type="line"/>
      <point x="565" y="125" type="line"/>
      <point x="46" y="125" type="line"/>
    </contour>
    <contour>
      <point x="46" y="54" type="line"/>
      <point x="374.241" y="110.623"/>
      <point x="545" y="191.432"/>
      <point x="545" y="361.96" type="curve" smooth="yes"/>
      <point x="545" y="500.455"/>
      <point x="459.497" y="573"/>
      <point x="316.352" y="573" type="curve" smooth="yes"/>
      <point x="206.831" y="573"/>
      <point x="128.053" y="528"/>
      <point x="56" y="440" type="curve"/>
      <point x="68" y="326" type="line"/>
      <point x="145.06" y="409"/>
      <point x="207.084" y="442"/>
      <point x="276.626" y="442" type="curve" smooth="yes"/>
      <point x="352.747" y="442"/>
      <point x="380" y="406.529"/>
      <point x="380" y="354.209" type="curve" smooth="yes"/>
      <point x="380" y="254.89"/>
      <point x="279.989" y="188.381"/>
      <point x="46" y="167" type="curve"/>
    </contour>
  </outline>
</glyph>
<glyph name="two.ss12" format="2">
  <advance width="612"/>
  <outline>
    <contour>
      <point x="46" y="0" type="line"/>
      <point x="565" y="0" type="line"/>
      <point x="565" y="130" type="line"/>
      <point x="46" y="130" type="line"/>
    </contour>
    <contour>
      <point x="46" y="94" type="line"/>
      <point x="429" y="168"/>
      <point x="565" y="283.359"/>
      <point x="565" y="478.5" type="curve" smooth="yes"/>
      <point x="565" y="636.984"/>
      <point x="476" y="720"/>
      <point x="327" y="720" type="curve" smooth="yes"/>
      <point x="213" y="720"/>
      <point x="131" y="675"/>
      <point x="56" y="587" type="curve"/>
      <point x="68" y="473" type="line"/>
      <point x="150" y="556"/>
      <point x="216" y="589"/>
      <point x="290" y="589" type="curve" smooth="yes"/>
      <point x="371" y="589"/>
      <point x="400" y="543.406"/>
      <point x="400" y="476.154" type="curve" smooth="yes"/>
      <point x="400" y="348.49"/>
      <point x="294" y="263"/>
      <point x="46" y="227" type="curve"/>
    </contour>
  </outline>
</glyph>
<glyph name="u.ss05" format="2">
  <advance width="600"/>
  <anchor x="300" y="-20" name="bottom"/>
  <anchor x="300" y="520" name="top"/>
  <anchor x="539" y="-3" name="ogonek"/>
  <outline>
    <contour>
      <point x="397" y="213" type="line"/>
      <point x="381" y="283" type="line"/>
      <point x="381" y="156.619"/>
      <point x="352" y="100"/>
      <point x="288" y="100" type="curve" smooth="yes"/>
      <point x="239" y="100"/>
      <point x="222" y="132.161"/>
      <point x="222" y="225.628" type="curve" smooth="yes"/>
      <point x="222" y="500" type="line"/>
      <point x="57" y="500" type="line"/>
      <point x="57" y="196" type="line" smooth="yes"/>
      <point x="57" y="53"/>
      <point x="119" y="-20"/>
      <point x="228" y="-20" type="curve" smooth="yes"/>
      <point x="319" y="-20"/>
      <point x="372" y="30"/>
      <point x="399" y="130" type="curve"/>
    </contour>
    <contour>
      <point x="381" y="0" type="line"/>
      <point x="546" y="0" type="line"/>
      <point x="546" y="500" type="line"/>
      <point x="381" y="500" type="line"/>
    </contour>
  </outline>
</glyph>
<glyph name="y.ss04" format="2">
  <advance width="565"/>
  <anchor x="453" y="0" name="bottom"/>
  <anchor x="283" y="520" name="top"/>
  <outline>
    <contour>
      <point x="44" y="-198" type="line"/>
      <point x="91" y="-212"/>
      <point x="115" y="-221"/>
      <point x="183" y="-221" type="curve" smooth="yes"/>
      <point x="269" y="-221"/>
      <point x="322" y="-178"/>
      <point x="356" y="-78" type="curve" smooth="yes"/>
      <point x="555" y="500" type="line"/>
      <point x="380" y="500" type="line"/>
      <point x="218" y="-29" type="line" smooth="yes"/>
      <point x="203.462" y="-76.4726"/>
      <point x="169" y="-96"/>
      <point x="131" y="-96" type="curve" smooth="yes"/>
      <point x="111" y="-96"/>
      <point x="95" y="-93"/>
      <point x="76" y="-84" type="curve"/>
    </contour>
    <contour>
      <point x="173" y="0" type="line"/>
      <point x="329" y="0" type="line"/>
      <point x="186" y="500" type="line"/>
      <point x="11" y="500" type="line"/>
    </contour>
  </outline>
</glyph>
<glyph name="zecyr.ss09" format="2">
  <advance width="525"/>
  <anchor x="262" y="520" name="top"/>
  <anchor x="282" y="-20" name="bottom"/>
  <outline>
    <contour>
      <point x="22" y="167" type="line"/>
      <point x="33" y="50"/>
      <point x="116" y="-20"/>
      <point x="261" y="-20" type="curve" smooth="yes"/>
      <point x="404" y="-20"/>
      <point x="483" y="42"/>
      <point x="483" y="136" type="curve" smooth="yes"/>
      <point x="483" y="225"/>
      <point x="416" y="263"/>
      <point x="293" y="261" type="curve"/>
      <point x="405.67" y="271"/>
      <point x="463.5" y="309"/>
      <point x="463.5" y="386" type="curve" smooth="yes"/>
      <point x="463.5" y="471"/>
      <point x="390.583" y="520"/>
      <point x="262.727" y="520" type="curve" smooth="yes"/>
      <point x="128.879" y="520"/>
      <point x="40.9785" y="454.698"/>
      <point x="22" y="333" type="curve"/>
      <point x="181" y="333" type="line"/>
      <point x="187.026" y="368.928"/>
      <point x="207.111" y="400"/>
      <point x="250.295" y="400" type="curve" smooth="yes"/>
      <point x="276.406" y="400"/>
      <point x="301.5" y="388"/>
      <point x="301.5" y="359" type="curve" smooth="yes"/>
      <point x="301.5" y="316"/>
      <point x="264.363" y="305"/>
      <point x="174" y="305" type="curve"/>
      <point x="174" y="195" type="line"/>
      <point x="273" y="195"/>
      <point x="318.5" y="182.872"/>
      <point x="318.5" y="146.489" type="curve" smooth="yes"/>
      <point x="318.5" y="118.191"/>
      <point x="292.408" y="100"/>
      <point x="251.257" y="100" type="curve" smooth="yes"/>
      <point x="206.092" y="100"/>
      <point x="186.018" y="124"/>
      <point x="181" y="167" type="curve"/>
    </contour>
  </outline>
</glyph>
